<svg width="47" height="55" viewBox="0 0 47 55" fill="none" xmlns="http://www.w3.org/2000/svg">
<path d="M18.7918 27.5426C16.8823 36.384 3.91812 42.1322 0.698582 43.4347C0.517016 43.5082 0.56219 43.775 0.756787 43.7943L11.0305 44.8125C11.8367 44.8921 12.4465 45.5806 12.4335 46.3967L12.3266 53.2069C12.3249 53.3425 12.4543 53.4396 12.5794 53.3871C14.3907 52.6234 25.2778 47.6879 29.5163 37.7933C34.1476 26.9845 33.2423 19.2173 33.2423 19.2173L18.7918 27.5426Z" fill="url(#paint0_linear_1003_103)"/>
<path d="M22.4348 25.4438L18.7922 27.5424C17.807 32.1044 13.8777 35.8345 9.86328 38.5638C14.7916 35.8572 21.0648 31.3504 22.4348 25.4438Z" fill="url(#paint1_linear_1003_103)"/>
<path d="M16.123 44.1404C16.136 43.3251 15.5253 42.6367 14.72 42.5562L4.75906 41.5703C2.99987 42.4678 1.52562 43.1003 0.698582 43.4345C0.517016 43.508 0.56219 43.7748 0.756787 43.794L11.0305 44.8123C11.8367 44.8919 12.4465 45.5803 12.4335 46.3965L12.3266 53.2067C12.3249 53.3431 12.4543 53.4393 12.5794 53.3869C13.032 53.1962 14.0519 52.7448 15.3924 52.0196L16.123 44.1404Z" fill="url(#paint2_linear_1003_103)"/>
<path opacity="0.4" d="M29.5168 37.7923C31.8797 32.2786 32.7971 27.5644 33.1342 24.2612C28.3891 22.2274 22.2637 28.6658 22.2637 28.6658C24.492 34.1839 25.8238 38.836 26.6508 42.6771C27.7602 41.2057 28.7497 39.583 29.5168 37.7923Z" fill="url(#paint3_linear_1003_103)"/>
<path d="M20.0657 26.8086L18.7922 27.5417C17.7601 32.3215 13.4964 36.1871 9.28906 38.9453C13.8551 36.1758 18.8895 32.0424 20.0657 26.8086Z" fill="url(#paint4_linear_1003_103)"/>
<path d="M24.7812 28.1173C30.9076 43.2851 30.3064 51.9918 30.8572 54.9197C30.984 55.5933 34.4095 51.7687 36.1947 49.9335C36.7464 49.3666 37.5916 49.2223 38.3014 49.5695L44.9325 52.8281C45.7022 53.206 46.5683 52.5359 46.3937 51.6918C45.2444 46.129 41.8259 30.851 37.98 25.6373C33.2428 19.2164 24.7812 28.1173 24.7812 28.1173Z" fill="url(#paint5_linear_1003_103)"/>
<path d="M25.1845 27.7192C24.9264 27.9659 24.7822 28.1173 24.7822 28.1173C28.1338 36.4163 29.4673 42.7681 30.0815 47.31C29.6306 42.9912 28.5508 36.5047 25.1845 27.7192Z" fill="url(#paint6_linear_1003_103)"/>
<path d="M46.3927 51.6928C46.3032 51.2615 46.1963 50.7541 46.0808 50.2153C45.8645 50.7261 45.2477 51.0192 44.6804 50.741L38.0493 47.4824C37.3404 47.1343 36.4943 47.2786 35.9426 47.8464C34.2104 49.6283 30.9396 53.2717 30.6338 52.8676C30.7007 53.7231 30.7615 54.4151 30.8579 54.9216C30.9848 55.5952 34.4102 51.7706 36.1954 49.9353C36.7471 49.3685 37.5924 49.2241 38.3021 49.5714L44.9332 52.83C45.702 53.207 46.5682 52.5361 46.3927 51.6928Z" fill="url(#paint7_linear_1003_103)"/>
<path opacity="0.4" d="M37.9794 25.6381C36.6068 23.7774 34.9206 23.2079 33.2187 23.3313C33.4177 20.7244 33.243 19.2163 33.243 19.2163L18.7925 27.5425C18.3103 29.7758 17.1201 31.8097 15.5625 33.6257C15.5651 33.6283 15.5668 33.631 15.5694 33.6336C15.7206 33.7919 15.8735 33.9467 16.0299 34.099C16.2497 34.3124 16.4773 34.518 16.7084 34.7201C16.8717 34.8644 17.0324 35.0114 17.2009 35.1487C17.2235 35.1671 17.2444 35.1881 17.2678 35.2073C17.2687 35.2056 17.2704 35.2038 17.2713 35.2021C18.1088 35.8774 19.0027 36.4854 19.954 37.0024C20.0096 37.033 20.0695 37.0557 20.126 37.0855C20.5951 37.3339 21.0738 37.5666 21.5663 37.7739C21.6767 37.8203 21.7922 37.8544 21.9034 37.8981C22.3534 38.0766 22.8086 38.2445 23.2751 38.3863C23.296 38.3924 23.316 38.402 23.3377 38.4081C23.3394 38.4073 23.3412 38.4055 23.3429 38.4038C24.9544 38.8849 26.6571 39.1526 28.4242 39.1526C28.9732 39.1526 29.5135 39.1185 30.0496 39.0695C30.1833 39.0572 30.3171 39.0441 30.4509 39.0292C30.9765 38.9689 31.4977 38.8945 32.0094 38.7895C32.0216 38.7869 32.0329 38.7843 32.0451 38.7817C32.2674 38.7353 32.4846 38.6767 32.7036 38.6225C32.707 38.6225 32.7096 38.6216 32.7131 38.6207C32.9894 38.5516 33.2639 38.4781 33.5349 38.3968C33.6679 38.3565 33.8008 38.3154 33.9328 38.2717C34.1952 38.1859 34.4549 38.0932 34.7121 37.9961C34.7164 37.9944 34.7208 37.9926 34.7251 37.9909C34.9223 37.9165 35.1195 37.8448 35.3132 37.7634C35.3602 37.7442 35.4062 37.7232 35.4522 37.7031C35.8901 37.5141 36.3149 37.3033 36.7328 37.082C36.8674 37.0102 37.0012 36.9376 37.1341 36.8633C37.5285 36.6411 37.9151 36.4075 38.2904 36.1556C38.3755 36.0987 38.4589 36.041 38.5432 35.9824C38.8985 35.7348 39.2443 35.4724 39.5805 35.2003C39.7134 35.0927 39.8446 34.9842 39.974 34.8723C40.2885 34.6037 40.5943 34.3255 40.8888 34.0351C41.0009 33.9249 41.1103 33.8138 41.2198 33.7009C41.3014 33.6161 41.3814 33.5286 41.4604 33.442C41.4891 33.4114 41.5169 33.3816 41.5456 33.351C41.5508 33.3458 41.556 33.3397 41.5612 33.3335C40.4553 30.1528 39.2417 27.3492 37.9794 25.6381Z" fill="url(#paint8_linear_1003_103)"/>
<path opacity="0.4" d="M21.5665 35.7523C21.6768 35.7987 21.7924 35.8328 21.9036 35.8766C22.3536 36.055 22.8088 36.223 23.2753 36.3647C23.2962 36.3708 23.3161 36.3804 23.3379 36.3866C23.3396 36.3857 23.3413 36.3839 23.3431 36.3822C24.9546 36.8633 26.6573 37.131 28.4243 37.131C28.9734 37.131 29.5137 37.0969 30.0497 37.0479C30.1835 37.0356 30.3173 37.0225 30.4511 37.0068C30.9767 36.9473 31.4979 36.8721 32.0096 36.7671C32.0218 36.7653 32.0331 36.7618 32.0452 36.7592C32.2676 36.7137 32.4848 36.6551 32.7037 36.6C32.7072 36.5991 32.7098 36.5991 32.7133 36.5982C32.9895 36.5291 33.2641 36.4557 33.5351 36.3743C33.668 36.3341 33.8009 36.2929 33.933 36.2492C34.1953 36.1635 34.4551 36.0708 34.7122 35.9737C34.7166 35.9719 34.7209 35.9702 34.7253 35.9684C34.9225 35.894 35.1197 35.8223 35.3134 35.7401C35.3603 35.7208 35.4064 35.6998 35.4524 35.6797C35.8902 35.4908 36.3151 35.2808 36.7329 35.0586C36.8676 34.9869 37.0014 34.9143 37.1343 34.8399C37.5287 34.6177 37.9153 34.3833 38.2906 34.1322C38.3757 34.0754 38.4591 34.0176 38.5434 33.959C38.8987 33.7115 39.2444 33.4499 39.5806 33.1779C39.7136 33.0703 39.8447 32.9609 39.9742 32.8498C40.2887 32.5813 40.5945 32.3031 40.889 32.0126C40.9376 31.9654 40.9836 31.9173 41.0314 31.8692C40.0723 29.3026 39.0429 27.0789 37.9787 25.6364C36.6061 23.7757 34.9199 23.2062 33.218 23.3296C33.2779 22.5475 33.3014 21.8792 33.3084 21.3062C33.278 21.308 33.2484 21.3062 33.218 21.308C33.2562 20.8111 33.2771 20.3676 33.2919 19.9529C33.271 19.4779 33.2423 19.2146 33.2423 19.2146L18.7918 27.5408C18.4086 29.3148 17.5668 30.9577 16.4609 32.471C16.5443 32.5454 16.6243 32.6232 16.7085 32.6967C16.8719 32.8411 17.0326 32.988 17.2011 33.1254C17.2237 33.1437 17.2445 33.1647 17.268 33.1831L17.2715 33.1787C18.1089 33.8541 19.0029 34.462 19.9541 34.979L19.9533 34.9799C20.0089 35.0105 20.0688 35.0333 20.1253 35.0621C20.5953 35.3132 21.0739 35.5459 21.5665 35.7523Z" fill="url(#paint9_linear_1003_103)"/>
<path d="M45.7854 17.9837C45.7854 27.643 38.01 35.4675 28.4259 35.4675C18.8418 35.4675 11.0664 27.643 11.0664 17.9837C11.0664 8.32447 18.8418 0.5 28.4259 0.5C38.01 0.5 45.7854 8.32447 45.7854 17.9837Z" fill="url(#paint10_linear_1003_103)" stroke="#D71D1D"/>
<path opacity="0.2" d="M28.7274 35.4699C18.8637 35.4699 10.8679 27.4184 10.8679 17.4861C10.8679 14.1725 11.7618 11.0705 13.3142 8.40503C11.5767 11.179 10.5664 14.462 10.5664 17.9848C10.5664 27.917 18.5623 35.9685 28.4259 35.9685C34.9988 35.9685 40.7385 32.3907 43.839 27.0659C40.676 32.1133 35.0926 35.4699 28.7274 35.4699Z" fill="#FF1717"/>
<path d="M28.4255 35.0279C37.7737 35.0279 45.352 27.397 45.352 17.9837C45.352 8.57042 37.7737 0.939453 28.4255 0.939453C19.0773 0.939453 11.499 8.57042 11.499 17.9837C11.499 27.397 19.0773 35.0279 28.4255 35.0279Z" fill="url(#paint11_linear_1003_103)"/>
<path opacity="0.3" d="M29.3785 34.1656C20.03 34.1656 12.452 26.534 12.452 17.1213C12.452 12.3057 14.4388 7.95887 17.628 4.85864C13.8846 7.98511 11.499 12.7037 11.499 17.9839C11.499 27.3974 19.0779 35.0281 28.4255 35.0281C32.9907 35.0281 37.1311 33.205 40.1752 30.2465C37.2449 32.6942 33.4824 34.1656 29.3785 34.1656Z" fill="#FF6400"/>
<path opacity="0.2" d="M28.4256 0.939453C24.3799 0.939453 20.6669 2.37059 17.7549 4.75612C20.534 2.74238 23.9412 1.55355 27.6255 1.55355C36.9748 1.55355 44.5519 9.18427 44.5519 18.5978C44.5519 23.9374 42.1125 28.7006 38.297 31.8262C42.5678 28.7321 45.3521 23.6873 45.3521 17.9846C45.3521 8.57017 37.7741 0.939453 28.4256 0.939453Z" fill="#FFF794"/>
<path opacity="0.3" d="M28.4259 32.7983C36.5512 32.7983 43.138 26.1656 43.138 17.9839C43.138 9.80208 36.5512 3.16943 28.4259 3.16943C20.3007 3.16943 13.7139 9.80208 13.7139 17.9839C13.7139 26.1656 20.3007 32.7983 28.4259 32.7983Z" fill="url(#paint12_linear_1003_103)"/>
<path opacity="0.2" d="M28.6544 32.4272C20.5291 32.4272 13.9432 25.7946 13.9432 17.6128C13.9432 14.8476 14.6981 12.2608 16.0073 10.0459C14.5574 12.3413 13.7139 15.0619 13.7139 17.9837C13.7139 26.1655 20.3006 32.7981 28.4259 32.7981C33.8043 32.7981 38.5068 29.8894 41.0739 25.5514C38.4633 29.683 33.8781 32.4272 28.6544 32.4272Z" fill="#FFF5CC"/>
<g opacity="0.2">
<path opacity="0.2" d="M28.5215 32.6197C20.3962 32.6197 13.8094 25.9871 13.8094 17.8053C13.8094 15.2876 14.4384 12.9205 15.54 10.8438C14.3793 12.9616 13.7139 15.3926 13.7139 17.9828C13.7139 26.1647 20.3006 32.7973 28.4259 32.7973C33.8043 32.7973 38.5068 29.8886 41.0739 25.5506C40.9809 25.6975 40.8793 25.8384 40.782 25.9818C38.1471 29.9796 33.6436 32.6197 28.5215 32.6197Z" fill="#FFF5CC"/>
<path opacity="0.2" d="M16.0075 10.0459C15.9953 10.0643 15.9857 10.0835 15.9744 10.1028C15.8546 10.3127 15.7364 10.5235 15.627 10.7405C15.7486 10.506 15.8728 10.2733 16.0075 10.0459Z" fill="#FFF5CC"/>
</g>
<path opacity="0.1" d="M28.4262 3.17017C24.6385 3.17017 21.1862 4.61268 18.5791 6.97984C21.121 4.86899 24.3797 3.60143 27.9319 3.60143C36.0572 3.60143 42.644 10.234 42.644 18.4159C42.644 22.7836 40.7658 26.7079 37.7791 29.4197C41.0525 26.7027 43.1383 22.5886 43.1383 17.9846C43.1374 9.80276 36.5507 3.17017 28.4262 3.17017Z" fill="url(#paint13_linear_1003_103)"/>
<path opacity="0.1" d="M28.4256 3.17017C25.0063 3.17017 21.8658 4.35374 19.3682 6.32463C21.8258 4.46659 24.8794 3.36524 28.1893 3.36524C36.3146 3.36524 42.9014 9.99783 42.9014 18.1797C42.9014 22.5947 40.9806 26.5548 37.9383 29.2684C37.8844 29.3182 37.8332 29.3707 37.7784 29.4197C41.0518 26.7027 43.1377 22.5886 43.1377 17.9846C43.1368 9.80276 36.55 3.17017 28.4256 3.17017Z" fill="url(#paint14_linear_1003_103)"/>
<path d="M28.4263 31.7494C35.9763 31.7494 42.0968 25.5863 42.0968 17.9838C42.0968 10.3813 35.9763 4.21826 28.4263 4.21826C20.8763 4.21826 14.7559 10.3813 14.7559 17.9838C14.7559 25.5863 20.8763 31.7494 28.4263 31.7494Z" fill="url(#paint15_linear_1003_103)"/>
<path d="M28.4263 31.7494C35.9763 31.7494 42.0968 25.5863 42.0968 17.9838C42.0968 10.3813 35.9763 4.21826 28.4263 4.21826C20.8763 4.21826 14.7559 10.3813 14.7559 17.9838C14.7559 25.5863 20.8763 31.7494 28.4263 31.7494Z" fill="url(#paint16_linear_1003_103)"/>
<path opacity="0.2" d="M27.9969 4.68714C35.5471 4.68714 41.6673 10.8509 41.6673 18.4536C41.6673 21.9273 40.3868 25.0984 38.2792 27.5207C40.6413 25.0468 42.0965 21.6876 42.0965 17.9838C42.0965 10.3811 35.9762 4.21826 28.426 4.21826C24.3256 4.21826 20.65 6.03868 18.1445 8.91671C20.6309 6.31161 24.124 4.68714 27.9969 4.68714Z" fill="#FFF35C"/>
<path opacity="0.2" d="M18.6232 8.39452C18.4599 8.56422 18.2992 8.73831 18.1445 8.91676C18.7379 8.29567 19.3894 7.73231 20.0879 7.23193C19.5727 7.58535 19.0845 7.97462 18.6232 8.39452Z" fill="#FFF35C"/>
<path opacity="0.2" d="M28.426 4.21826C25.5305 4.21826 22.8487 5.12891 20.6387 6.6764C22.8053 5.22076 25.4072 4.37135 28.2071 4.37135C35.7573 4.37135 41.8776 10.5342 41.8776 18.1369C41.8776 21.0351 40.9784 23.7136 39.459 25.9312C39.1002 26.4876 38.7127 27.0238 38.2801 27.5198C40.6422 25.0459 42.0973 21.6868 42.0973 17.9829C42.0965 10.3811 35.9762 4.21826 28.426 4.21826Z" fill="#FFF35C"/>
<g opacity="0.1">
<path opacity="0.1" d="M29.7876 23.25L22.9967 25.6443L23.1591 18.4011L19.6503 13.7612L17.4385 14.4296L21.7978 20.1935L21.6353 27.4367L28.4263 25.0424L35.2172 27.4367L35.1659 25.1456L29.7876 23.25Z" fill="#CC0000"/>
</g>
<g opacity="0.2">
<path opacity="0.7" d="M34.4443 27.1645L35.2166 27.4365L35.0559 20.2791L34.4443 27.1645Z" fill="#FFF794"/>
</g>
<g opacity="0.2">
<path d="M24.7487 11.8777L28.4747 6.46022L28.426 6.39111L24.6279 11.9145L24.7487 11.8777Z" fill="#FFE97A"/>
</g>
<path opacity="0.2" d="M28.5897 34.8406C19.2421 34.8406 11.6632 27.2091 11.6632 17.7964C11.6632 13.454 13.2782 9.49387 15.9331 6.48462C13.18 9.51574 11.499 13.552 11.499 17.9845C11.499 27.398 19.0779 35.0287 28.4255 35.0287C33.4616 35.0287 37.9816 32.8112 41.0821 29.2963C37.9877 32.7027 33.5371 34.8406 28.5897 34.8406Z" fill="white"/>
<path opacity="0.3" d="M28.5692 35.7637C18.7056 35.7637 10.7097 27.7113 10.7097 17.7791C10.7097 13.7962 11.9981 10.1169 14.1751 7.13647C11.9112 10.1501 10.5664 13.9038 10.5664 17.9741C10.5664 27.9064 18.5623 35.9588 28.4259 35.9588C34.3342 35.9588 39.5692 33.0685 42.82 28.6167C39.5596 32.9574 34.3907 35.7637 28.5692 35.7637Z" fill="white"/>
<g opacity="0.2">
<path d="M46.2101 16.3584C45.9729 13.6894 45.1554 11.1902 43.887 8.98486L19.9551 33.819C21.0228 34.399 22.1556 34.8705 23.3397 35.2239C28.6008 30.8964 37.4853 23.5648 46.2101 16.3584Z" fill="url(#paint17_linear_1003_103)"/>
<path d="M28.2212 0C25.7775 0 23.4484 0.495126 21.3261 1.39003L13.418 28.0481C14.4283 29.5519 15.661 30.8903 17.0641 32.0222C22.6935 24.3705 31.3791 12.4595 38.2117 3.07486C35.3614 1.13372 31.9229 0 28.2212 0Z" fill="url(#paint18_linear_1003_103)"/>
</g>
<defs>
<linearGradient id="paint0_linear_1003_103" x1="25.4614" y1="27.6484" x2="-28.3364" y2="96.932" gradientUnits="userSpaceOnUse">
<stop stop-color="#FF2600"/>
<stop offset="0.7435" stop-color="#FFC800"/>
<stop offset="1" stop-color="#FF9D00"/>
</linearGradient>
<linearGradient id="paint1_linear_1003_103" x1="19.0513" y1="29.4358" x2="-8.48842" y2="58.5746" gradientUnits="userSpaceOnUse">
<stop stop-color="#FF2600"/>
<stop offset="0.7435" stop-color="#FFC800"/>
<stop offset="1" stop-color="#FF9D00"/>
</linearGradient>
<linearGradient id="paint2_linear_1003_103" x1="-0.610171" y1="61.1785" x2="10.457" y2="44.174" gradientUnits="userSpaceOnUse">
<stop stop-color="#FF2600"/>
<stop offset="0.7435" stop-color="#FFC800"/>
<stop offset="1" stop-color="#FF9D00"/>
</linearGradient>
<linearGradient id="paint3_linear_1003_103" x1="18.6891" y1="37.5208" x2="24.5964" y2="34.8963" gradientUnits="userSpaceOnUse">
<stop stop-color="#FF9D00"/>
<stop offset="1" stop-color="#8A0000"/>
</linearGradient>
<linearGradient id="paint4_linear_1003_103" x1="17.3677" y1="30.6789" x2="-7.22174" y2="56.696" gradientUnits="userSpaceOnUse">
<stop stop-color="#FF2600"/>
<stop offset="0.7435" stop-color="#FFC800"/>
<stop offset="1" stop-color="#FF9D00"/>
</linearGradient>
<linearGradient id="paint5_linear_1003_103" x1="38.8541" y1="36.7204" x2="-1.02088" y2="78.9106" gradientUnits="userSpaceOnUse">
<stop stop-color="#FF2600"/>
<stop offset="0.7435" stop-color="#FFC800"/>
<stop offset="1" stop-color="#FF9D00"/>
</linearGradient>
<linearGradient id="paint6_linear_1003_103" x1="29.5963" y1="43.2441" x2="32.9988" y2="53.2768" gradientUnits="userSpaceOnUse">
<stop stop-color="#FF2600"/>
<stop offset="0.7435" stop-color="#FFC800"/>
<stop offset="1" stop-color="#FF9D00"/>
</linearGradient>
<linearGradient id="paint7_linear_1003_103" x1="34.7639" y1="41.4917" x2="38.1664" y2="51.5244" gradientUnits="userSpaceOnUse">
<stop stop-color="#FF2600"/>
<stop offset="0.7435" stop-color="#FFC800"/>
<stop offset="1" stop-color="#FF9D00"/>
</linearGradient>
<linearGradient id="paint8_linear_1003_103" x1="28.5619" y1="45.7838" x2="28.5619" y2="32.1714" gradientUnits="userSpaceOnUse">
<stop stop-color="#FF9D00"/>
<stop offset="1" stop-color="#8A0000"/>
</linearGradient>
<linearGradient id="paint9_linear_1003_103" x1="28.7471" y1="43.0903" x2="28.7471" y2="30.8579" gradientUnits="userSpaceOnUse">
<stop stop-color="#FF9D00"/>
<stop offset="1" stop-color="#8A0000"/>
</linearGradient>
<linearGradient id="paint10_linear_1003_103" x1="13.8812" y1="34.7059" x2="44.201" y2="0.326824" gradientUnits="userSpaceOnUse">
<stop stop-color="#FF9D00"/>
<stop offset="0.2824" stop-color="#FF9100"/>
<stop offset="0.7435" stop-color="#FFC800"/>
<stop offset="1" stop-color="#FF5500"/>
</linearGradient>
<linearGradient id="paint11_linear_1003_103" x1="11.5757" y1="34.7135" x2="42.8264" y2="4.1118" gradientUnits="userSpaceOnUse">
<stop stop-color="#FF9D00"/>
<stop offset="0.2824" stop-color="#FFBB00"/>
<stop offset="0.7435" stop-color="#FFC800"/>
<stop offset="1" stop-color="#FF9D00"/>
</linearGradient>
<linearGradient id="paint12_linear_1003_103" x1="39.8424" y1="9.07849" x2="-0.5791" y2="40.1735" gradientUnits="userSpaceOnUse">
<stop stop-color="#FF2600"/>
<stop offset="0.7435" stop-color="#FFC800"/>
<stop offset="1" stop-color="#FF9D00"/>
</linearGradient>
<linearGradient id="paint13_linear_1003_103" x1="37.7782" y1="10.7549" x2="24.3054" y2="21.0178" gradientUnits="userSpaceOnUse">
<stop stop-color="#8C1500"/>
<stop offset="1" stop-color="#FFC800"/>
</linearGradient>
<linearGradient id="paint14_linear_1003_103" x1="37.9299" y1="10.643" x2="25.3257" y2="20.2442" gradientUnits="userSpaceOnUse">
<stop stop-color="#8C1500"/>
<stop offset="1" stop-color="#FFC800"/>
</linearGradient>
<linearGradient id="paint15_linear_1003_103" x1="14.8182" y1="31.496" x2="40.0575" y2="6.78086" gradientUnits="userSpaceOnUse">
<stop stop-color="#FF9D00"/>
<stop offset="0.2824" stop-color="#FFBB00"/>
<stop offset="0.7435" stop-color="#FFC800"/>
<stop offset="1" stop-color="#FF9D00"/>
</linearGradient>
<linearGradient id="paint16_linear_1003_103" x1="14.8182" y1="31.496" x2="40.0575" y2="6.78086" gradientUnits="userSpaceOnUse">
<stop stop-color="#FF9D00"/>
<stop offset="0.2824" stop-color="#FFBB00"/>
<stop offset="0.7435" stop-color="#FFC800"/>
<stop offset="1" stop-color="#FF9D00"/>
</linearGradient>
<linearGradient id="paint17_linear_1003_103" x1="27.3927" y1="37.3508" x2="41.3085" y2="7.7718" gradientUnits="userSpaceOnUse">
<stop stop-color="#FF9D00"/>
<stop offset="0.6295" stop-color="white"/>
</linearGradient>
<linearGradient id="paint18_linear_1003_103" x1="16.1479" y1="31.5917" x2="31.2255" y2="-0.45685" gradientUnits="userSpaceOnUse">
<stop stop-color="#FF9D00"/>
<stop offset="0.6295" stop-color="white"/>
</linearGradient>
</defs>
</svg>
