<svg id="Group_17943" data-name="Group 17943" xmlns="http://www.w3.org/2000/svg" width="15.557" height="15.556" viewBox="0 0 15.557 15.556">
  <ellipse id="Ellipse_1" data-name="Ellipse 1" cx="7.778" cy="7.778" rx="7.778" ry="7.778" fill="#f00"/>
  <path id="Path_11841" data-name="Path 11841" d="M1.635-.292H.857V-5.431h.778ZM.791-6.823a.517.517,0,0,1,.131-.391.459.459,0,0,1,.328-.124.459.459,0,0,1,.323.127.508.508,0,0,1,.136.389.516.516,0,0,1-.136.391A.454.454,0,0,1,1.25-6.3a.45.45,0,0,1-.328-.129A.526.526,0,0,1,.791-6.823Z" transform="translate(6.209 11.179)" fill="#fff"/>
</svg>
