<svg width="40" height="40" viewBox="0 0 40 40" fill="none" xmlns="http://www.w3.org/2000/svg">
<g clip-path="url(#clip0_598_465)">
<path d="M38.0082 1.5625L22.4004 13.1547L25.2867 6.31544L38.0082 1.5625Z" fill="#E2761B" stroke="#E2761B" stroke-width="0.3125" stroke-linecap="round" stroke-linejoin="round"/>
<path d="M1.97656 1.5625L17.4589 13.2645L14.7138 6.31544L1.97656 1.5625Z" fill="#E4761B" stroke="#E4761B" stroke-width="0.3125" stroke-linecap="round" stroke-linejoin="round"/>
<path d="M32.3922 28.4331L28.2354 34.8017L37.1295 37.2488L39.6863 28.5743L32.3922 28.4331Z" fill="#E4761B" stroke="#E4761B" stroke-width="0.3125" stroke-linecap="round" stroke-linejoin="round"/>
<path d="M0.329102 28.5743L2.87028 37.2488L11.7644 34.8017L7.60753 28.4331L0.329102 28.5743Z" fill="#E4761B" stroke="#E4761B" stroke-width="0.3125" stroke-linecap="round" stroke-linejoin="round"/>
<path d="M11.2626 17.6723L8.78418 21.4213L17.6156 21.8135L17.3018 12.3233L11.2626 17.6723Z" fill="#E4761B" stroke="#E4761B" stroke-width="0.3125" stroke-linecap="round" stroke-linejoin="round"/>
<path d="M28.722 17.6723L22.6043 12.2135L22.4004 21.8135L31.2161 21.4213L28.722 17.6723Z" fill="#E4761B" stroke="#E4761B" stroke-width="0.3125" stroke-linecap="round" stroke-linejoin="round"/>
<path d="M11.7646 34.8017L17.0666 32.2135L12.4862 28.637L11.7646 34.8017Z" fill="#E4761B" stroke="#E4761B" stroke-width="0.3125" stroke-linecap="round" stroke-linejoin="round"/>
<path d="M22.918 32.2135L28.2356 34.8017L27.4984 28.637L22.918 32.2135Z" fill="#E4761B" stroke="#E4761B" stroke-width="0.3125" stroke-linecap="round" stroke-linejoin="round"/>
<path d="M28.2356 34.8017L22.918 32.2135L23.3415 35.6801L23.2944 37.139L28.2356 34.8017Z" fill="#D7C1B3" stroke="#D7C1B3" stroke-width="0.3125" stroke-linecap="round" stroke-linejoin="round"/>
<path d="M11.7646 34.8017L16.7058 37.139L16.6745 35.6801L17.0666 32.2135L11.7646 34.8017Z" fill="#D7C1B3" stroke="#D7C1B3" stroke-width="0.3125" stroke-linecap="round" stroke-linejoin="round"/>
<path d="M16.7849 26.3468L12.3613 25.0449L15.4829 23.6174L16.7849 26.3468Z" fill="#233447" stroke="#233447" stroke-width="0.3125" stroke-linecap="round" stroke-linejoin="round"/>
<path d="M23.2002 26.3468L24.5022 23.6174L27.6394 25.0449L23.2002 26.3468Z" fill="#233447" stroke="#233447" stroke-width="0.3125" stroke-linecap="round" stroke-linejoin="round"/>
<path d="M11.7653 34.8017L12.5182 28.4331L7.6084 28.5743L11.7653 34.8017Z" fill="#CD6116" stroke="#CD6116" stroke-width="0.3125" stroke-linecap="round" stroke-linejoin="round"/>
<path d="M27.4834 28.4331L28.2363 34.8017L32.3932 28.5743L27.4834 28.4331Z" fill="#CD6116" stroke="#CD6116" stroke-width="0.3125" stroke-linecap="round" stroke-linejoin="round"/>
<path d="M31.2161 21.4213L22.4004 21.8135L23.2161 26.3468L24.518 23.6174L27.6553 25.0449L31.2161 21.4213Z" fill="#CD6116" stroke="#CD6116" stroke-width="0.3125" stroke-linecap="round" stroke-linejoin="round"/>
<path d="M12.3616 25.0449L15.4989 23.6174L16.7852 26.3468L17.6165 21.8135L8.78516 21.4213L12.3616 25.0449Z" fill="#CD6116" stroke="#CD6116" stroke-width="0.3125" stroke-linecap="round" stroke-linejoin="round"/>
<path d="M8.78418 21.4213L12.4861 28.637L12.3606 25.0449L8.78418 21.4213Z" fill="#E4751F" stroke="#E4751F" stroke-width="0.3125" stroke-linecap="round" stroke-linejoin="round"/>
<path d="M27.6549 25.0449L27.498 28.637L31.2157 21.4213L27.6549 25.0449Z" fill="#E4751F" stroke="#E4751F" stroke-width="0.3125" stroke-linecap="round" stroke-linejoin="round"/>
<path d="M17.6156 21.8135L16.7842 26.3468L17.8195 31.6958L18.0548 24.6527L17.6156 21.8135Z" fill="#E4751F" stroke="#E4751F" stroke-width="0.3125" stroke-linecap="round" stroke-linejoin="round"/>
<path d="M22.4001 21.8135L21.9766 24.637L22.1648 31.6958L23.2158 26.3468L22.4001 21.8135Z" fill="#E4751F" stroke="#E4751F" stroke-width="0.3125" stroke-linecap="round" stroke-linejoin="round"/>
<path d="M23.216 26.3468L22.165 31.6958L22.918 32.2135L27.4984 28.637L27.6552 25.0449L23.216 26.3468Z" fill="#F6851B" stroke="#F6851B" stroke-width="0.3125" stroke-linecap="round" stroke-linejoin="round"/>
<path d="M12.3613 25.0449L12.4868 28.637L17.0672 32.2135L17.8202 31.6958L16.7849 26.3468L12.3613 25.0449Z" fill="#F6851B" stroke="#F6851B" stroke-width="0.3125" stroke-linecap="round" stroke-linejoin="round"/>
<path d="M23.2941 37.139L23.3411 35.6802L22.949 35.3351H17.0352L16.6745 35.6802L16.7058 37.139L11.7646 34.8017L13.4901 36.2135L16.9882 38.6449H22.996L26.5097 36.2135L28.2352 34.8017L23.2941 37.139Z" fill="#C0AD9E" stroke="#C0AD9E" stroke-width="0.3125" stroke-linecap="round" stroke-linejoin="round"/>
<path d="M22.9179 32.2135L22.165 31.6958H17.8199L17.067 32.2135L16.6748 35.6801L17.0356 35.335H22.9493L23.3415 35.6801L22.9179 32.2135Z" fill="#161616" stroke="#161616" stroke-width="0.3125" stroke-linecap="round" stroke-linejoin="round"/>
<path d="M38.667 13.9076L40.0003 7.5076L38.0082 1.5625L22.918 12.7625L28.7219 17.6723L36.9258 20.0723L38.7454 17.9547L37.9611 17.39L39.216 16.2449L38.2435 15.4919L39.4984 14.5351L38.667 13.9076Z" fill="#763D16" stroke="#763D16" stroke-width="0.3125" stroke-linecap="round" stroke-linejoin="round"/>
<path d="M0 7.5076L1.33333 13.9076L0.486275 14.5351L1.74118 15.4919L0.784314 16.2449L2.03922 17.39L1.2549 17.9547L3.05882 20.0723L11.2627 17.6723L17.0667 12.7625L1.97647 1.5625L0 7.5076Z" fill="#763D16" stroke="#763D16" stroke-width="0.3125" stroke-linecap="round" stroke-linejoin="round"/>
<path d="M36.9255 20.0723L28.7216 17.6723L31.2157 21.4213L27.498 28.637L32.3922 28.5743H39.6863L36.9255 20.0723Z" fill="#F6851B" stroke="#F6851B" stroke-width="0.3125" stroke-linecap="round" stroke-linejoin="round"/>
<path d="M11.2624 17.6723L3.05851 20.0723L0.329102 28.5743H7.60753L12.486 28.637L8.784 21.4213L11.2624 17.6723Z" fill="#F6851B" stroke="#F6851B" stroke-width="0.3125" stroke-linecap="round" stroke-linejoin="round"/>
<path d="M22.4001 21.8135L22.9178 12.7625L25.3021 6.31543H14.7139L17.0668 12.7625L17.6158 21.8135L17.8041 24.6684L17.8197 31.6958H22.1648L22.1962 24.6684L22.4001 21.8135Z" fill="#F6851B" stroke="#F6851B" stroke-width="0.3125" stroke-linecap="round" stroke-linejoin="round"/>
</g>
<defs>
<clipPath id="clip0_598_465">
<rect width="40" height="40" fill="white"/>
</clipPath>
</defs>
</svg>
