<svg width="19" height="31" viewBox="0 0 19 31" fill="none" xmlns="http://www.w3.org/2000/svg">
<g id="719921_01 copy-02 2" clip-path="url(#clip0_511_8637)">
<g id="Objects">
<g id="Group">
<path id="Vector" d="M13.1582 11.7289C13.1582 11.7289 11.8857 10.0654 12.6542 7.99178C13.4273 5.9165 15.2973 5.27416 15.2973 5.27416C15.2973 5.27416 16.7398 7.24855 15.9857 9.27186C15.2362 11.2938 13.1582 11.7289 13.1582 11.7289Z" fill="white"/>
<path id="Vector_2" d="M9.71379 12.51C9.71379 12.51 7.53295 12.1395 6.25265 10.148C4.9744 8.15732 5.89178 6.14767 5.89178 6.14767C5.89178 6.14767 7.92306 6.7298 9.23413 8.7732C10.5478 10.8159 9.71379 12.51 9.71379 12.51Z" fill="white"/>
<path id="Vector_3" d="M9.51155 18.6806C9.51155 18.6806 7.36572 18.0405 6.34733 15.9348C5.33282 13.826 6.5286 11.9803 6.5286 11.9803C6.5286 11.9803 8.49139 12.8084 9.5348 14.9717C10.5781 17.1316 9.51155 18.6806 9.51155 18.6806Z" fill="white"/>
<path id="Vector_4" d="M6.98458 23.0556C6.98458 23.0556 4.88994 22.229 4.07178 20.0619C3.25617 17.892 4.63758 16.1829 4.63758 16.1829C4.63758 16.1829 6.53418 17.1764 7.37278 19.403C8.21162 21.6277 6.98458 23.0556 6.98458 23.0556Z" fill="white"/>
<path id="Vector_5" d="M3.26247 27.356C3.26247 27.356 1.43315 26.0033 1.27415 23.7688C1.11448 21.5343 2.99673 20.3377 2.99673 20.3377C2.99673 20.3377 4.57581 21.79 4.73987 24.0836C4.90166 26.3787 3.26247 27.356 3.26247 27.356Z" fill="white"/>
<path id="Vector_6" d="M10.3032 7.33116C10.3032 7.33116 8.36649 6.53235 7.76127 4.26078C7.15671 1.98889 8.22723 0.4039 8.22723 0.4039C8.22723 0.4039 10.4776 1.39127 11.0645 3.60637C11.653 5.82084 10.3032 7.33116 10.3032 7.33116Z" fill="white"/>
<path id="Vector_7" d="M13.2386 16.4466C13.2386 16.4466 12.4902 14.5478 13.8878 12.856C15.2886 11.1626 17.3323 11.1069 17.3323 11.1069C17.3323 11.1069 18.1519 13.3415 16.7918 14.9912C15.4264 16.6423 13.2386 16.4466 13.2386 16.4466Z" fill="white"/>
<path id="Vector_8" d="M11.7214 21.1388C11.7214 21.1388 11.4132 19.1729 13.2016 17.8674C14.9916 16.5616 17.0478 16.9523 17.0478 16.9523C17.0478 16.9523 17.3511 19.2524 15.6063 20.5257C13.8615 21.7984 11.7214 21.1388 11.7214 21.1388Z" fill="white"/>
<path id="Vector_9" d="M9.35608 24.9141C9.35608 24.9141 9.66874 23.0153 11.847 22.3443C14.0246 21.6715 15.9332 22.6348 15.9332 22.6348C15.9332 22.6348 15.5069 24.8381 13.3884 25.4944C11.2615 26.15 9.35608 24.9141 9.35608 24.9141Z" fill="white"/>
<path id="Vector_10" d="M8.31793 26.4772C10.5933 26.0723 12.3963 27.2387 12.3963 27.2387C12.3963 27.2387 11.6913 29.3481 9.47722 29.7429C7.25921 30.1389 5.49395 28.7051 5.49395 28.7051C5.49395 28.7051 6.04561 26.8834 8.31793 26.4772Z" fill="white"/>
<path id="Vector_11" d="M10.0921 8.63076L11.099 8.24585C11.1572 8.35668 16.5631 19.531 2.08165 30.2675L1.33395 29.3693C15.1194 19.148 10.3044 9.05608 10.0921 8.63076Z" fill="white"/>
</g>
</g>
</g>
<defs>
<clipPath id="clip0_511_8637">
<rect width="17" height="29.5492" fill="white" transform="matrix(-0.998941 0.0459992 0.0459992 0.998941 17 0)"/>
</clipPath>
</defs>
</svg>
