<svg width="17" height="18" viewBox="0 0 17 18" fill="none" xmlns="http://www.w3.org/2000/svg">
<g opacity="0.8">
<mask id="mask0_138_1547" style="mask-type:luminance" maskUnits="userSpaceOnUse" x="0" y="0" width="17" height="18">
<path d="M0.164062 0.833008H16.498V17.1669H0.164062V0.833008Z" fill="white"/>
</mask>
<g mask="url(#mask0_138_1547)">
<path d="M7.70361 13.4024H8.95846M11.476 13.4024H12.7308M3.94046 13.4024H5.19527M7.70232 9.63784H8.95714M11.4747 9.63784H12.7296M3.93913 9.63784H5.19398M0.802735 6.48957H15.8673M12.1028 4.608V1.47028M4.56722 4.608V1.47028M3.31897 16.5282H13.3471C13.6777 16.5284 14.0052 16.4634 14.3107 16.3369C14.6162 16.2105 14.8938 16.025 15.1276 15.7912C15.3615 15.5574 15.5469 15.2798 15.6733 14.9743C15.7998 14.6688 15.8648 14.3413 15.8646 14.0106V5.24132C15.8646 4.57362 15.5994 3.93328 15.1272 3.46114C14.6551 2.989 14.0148 2.72376 13.3471 2.72376H3.31897C2.65149 2.72411 2.01148 2.98952 1.53963 3.46162C1.06778 3.93372 0.802735 4.57385 0.802735 5.24132V14.0106C0.802561 14.3412 0.867508 14.6685 0.993884 14.974C1.12026 15.2794 1.30559 15.557 1.53927 15.7908C1.77294 16.0245 2.05036 16.21 2.35573 16.3365C2.6611 16.4631 2.98842 16.5282 3.31897 16.5282Z" stroke="white" stroke-miterlimit="10" stroke-linecap="round" stroke-linejoin="round"/>
</g>
</g>
</svg>
