<svg width="15" height="15" viewBox="0 0 15 15" fill="none" xmlns="http://www.w3.org/2000/svg">
<path d="M1.51233 14.5097C1.25217 14.5097 0.992017 14.4105 0.793648 14.2122C0.396909 13.8154 0.396909 13.172 0.793648 12.7748L12.7653 0.803536C13.1621 0.406797 13.8055 0.406797 14.2027 0.803536C14.5994 1.20027 14.5994 1.84376 14.2027 2.2409L2.23061 14.2122C2.1364 14.3067 2.02444 14.3816 1.90117 14.4327C1.77791 14.4837 1.64576 14.5099 1.51233 14.5097Z" fill="white"/>
<path d="M13.4836 14.5098C13.2234 14.5098 12.9633 14.4106 12.7649 14.2122L0.793648 2.24053C0.396909 1.8438 0.396909 1.20031 0.793648 0.803169C1.19039 0.406431 1.83387 0.406431 2.23101 0.803169L14.2027 12.7748C14.5994 13.1716 14.5994 13.8151 14.2027 14.2122C14.1083 14.3067 13.9962 14.3816 13.8728 14.4327C13.7494 14.4837 13.6171 14.5099 13.4836 14.5098Z" fill="white"/>
</svg>
