<svg width="67" height="67" viewBox="0 0 67 67" fill="none" xmlns="http://www.w3.org/2000/svg">
<circle cx="33.0913" cy="33.0913" r="32.8413" fill="#2241AA" stroke="url(#paint0_linear_2501_84)" stroke-width="0.5"/>
<g clip-path="url(#clip0_2501_84)">
<path d="M42.9049 37.5246V36.484C43.9624 36.2696 44.7604 35.3323 44.7604 34.2122V34.1904H44.9636C45.7111 34.1904 46.3193 33.5147 46.3193 32.6836V31.5059C46.3193 30.8815 45.9818 30.3303 45.4579 30.101L38.6861 27.1767C38.8471 25.5314 38.2994 23.8299 37.0422 22.5727C34.8133 20.3466 31.1873 20.3466 28.9584 22.5734C27.7026 23.8306 27.1556 25.5321 27.3166 27.1767L20.5406 30.1032C20.0189 30.3317 19.6814 30.8822 19.6814 31.5073V32.685C19.6814 33.5161 20.2896 34.1918 21.037 34.1918H21.2402V34.2136C21.2402 35.3337 22.0382 36.2703 23.0957 36.4854V37.526C23.0957 38.1195 23.5704 38.6025 24.1603 38.6187V44.9321C23.5711 44.9482 23.0957 45.4313 23.0957 46.0247V47.0189H21.6719C20.5743 47.0189 19.6807 47.9119 19.6807 49.0102V49.9988C19.6807 50.5514 20.1307 51.0014 20.6833 51.0014H45.3159C45.8686 51.0014 46.3186 50.5514 46.3186 49.9988V49.0102C46.3186 47.9126 45.4256 47.0189 44.3273 47.0189H42.9042V46.0247C42.9042 45.4313 42.4296 44.9482 41.8396 44.9321V38.6187C42.4296 38.6011 42.9049 38.1174 42.9049 37.5246ZM39.345 44.9285V38.6187H40.7161V44.9285H39.345ZM28.8431 47.0175V46.0233C28.8431 45.4299 28.3685 44.9468 27.7786 44.9307V38.6173C28.3678 38.6011 28.8431 38.1181 28.8431 37.5246V36.5297H37.1561V37.5239C37.1561 38.1174 37.6307 38.6004 38.2207 38.6166V44.93C37.6314 44.9461 37.1561 45.4292 37.1561 46.0226V47.0168H28.8431V47.0175ZM25.2839 44.9285V38.6187H26.655V44.9285H25.2839ZM24.2193 36.5297H27.7195V37.4944H24.2193V36.5297ZM41.7806 36.5297V37.4944H38.2804V36.5297H41.7806ZM29.7529 23.3665C31.5438 21.5778 34.4568 21.5778 36.247 23.3665C37.3347 24.455 37.7608 25.9575 37.526 27.3708C37.5161 27.406 37.5098 27.4411 37.507 27.477C37.3481 28.3144 36.9557 29.116 36.3293 29.7755H33.4929C33.5371 29.6953 33.5625 29.6025 33.5625 29.5048V29.0738C34.1545 28.8523 34.5771 28.2807 34.5771 27.6113C34.5771 26.8196 33.9836 26.165 33.2186 26.0658C33.18 26.0574 33.1392 26.0525 33.0977 26.0525H32.9824C32.7419 26.0525 32.5457 25.857 32.5457 25.6158C32.5457 25.3753 32.7412 25.1792 32.9824 25.1792H33.2137C33.3501 25.1792 33.4802 25.2453 33.5618 25.3564C33.7453 25.6067 34.0968 25.6608 34.3471 25.4766C34.5975 25.2924 34.6516 24.9415 34.4674 24.6912C34.2452 24.3889 33.9211 24.1786 33.5618 24.0957V23.7244C33.5618 23.4136 33.31 23.1626 33 23.1626C32.6899 23.1626 32.4382 23.4143 32.4382 23.7244V24.1533C31.8454 24.3748 31.4214 24.9464 31.4214 25.6158C31.4214 26.4082 32.0156 27.0642 32.782 27.1634C32.8207 27.1718 32.8614 27.1767 32.9022 27.1767H33.0175C33.2573 27.1767 33.4521 27.3715 33.4521 27.6113C33.4521 27.8517 33.2573 28.0479 33.0175 28.0479H32.7862C32.6463 28.0479 32.519 27.9832 32.4361 27.8707C32.2525 27.6204 31.9003 27.5663 31.6507 27.7505C31.4004 27.934 31.3462 28.2856 31.5304 28.5359C31.7526 28.8389 32.0775 29.0485 32.4382 29.1321V29.5055C32.4382 29.6039 32.4635 29.696 32.5078 29.7762H29.6693C29.0407 29.1146 28.649 28.3095 28.4908 27.4685C28.488 27.4404 28.4831 27.4123 28.4761 27.3849C28.2377 25.966 28.6624 24.4578 29.7529 23.3665ZM20.805 32.6829V31.5052C20.805 31.3301 20.8795 31.1796 20.9878 31.1325L27.5423 28.3017C27.7005 28.8164 27.9318 29.3135 28.2384 29.7755H27.4839C27.1732 29.7755 26.9221 30.0272 26.9221 30.3373C26.9221 30.6474 27.1739 30.8991 27.4839 30.8991H38.5181C38.8289 30.8991 39.0799 30.6474 39.0799 30.3373C39.0799 30.0272 38.8282 29.7755 38.5181 29.7755H37.7622C38.0688 29.3142 38.3008 28.8171 38.459 28.3025L45.01 31.1318C45.1211 31.1803 45.1957 31.3308 45.1957 31.5059V32.6836C45.1957 32.9171 45.0586 33.0661 44.9643 33.0661H21.0363C20.9421 33.0654 20.805 32.9171 20.805 32.6829ZM22.3638 34.2115V34.1897H43.6361V34.2115C43.6361 34.8696 43.1018 35.4054 42.4443 35.4054H23.5577C22.8996 35.4054 22.3638 34.8703 22.3638 34.2115ZM24.2193 46.0528H27.7195V47.0175H24.2193V46.0528ZM45.195 49.0088V49.8757H20.805V49.0088C20.805 48.5307 21.1938 48.1418 21.6719 48.1418H44.3273C44.8061 48.1418 45.195 48.5307 45.195 49.0088ZM38.2804 47.0175V46.0528H41.7806V47.0175H38.2804ZM25.4294 22.3231V18.0221C25.4294 17.7113 25.6811 17.4603 25.9912 17.4603C26.3013 17.4603 26.553 17.712 26.553 18.0221V22.3231C26.553 22.6339 26.3013 22.8849 25.9912 22.8849C25.6811 22.8849 25.4294 22.6332 25.4294 22.3231ZM28.694 19.8657V15.5625C28.694 15.2517 28.9457 15.0007 29.2558 15.0007C29.5659 15.0007 29.8176 15.2525 29.8176 15.5625V19.8657C29.8176 20.1764 29.5659 20.4275 29.2558 20.4275C28.9457 20.4275 28.694 20.1757 28.694 19.8657ZM39.4483 22.3231V18.0221C39.4483 17.7113 39.7 17.4603 40.0101 17.4603C40.3202 17.4603 40.5719 17.712 40.5719 18.0221V22.3231C40.5719 22.6339 40.3202 22.8849 40.0101 22.8849C39.7 22.8849 39.4483 22.6332 39.4483 22.3231ZM36.1837 19.8657V15.5625C36.1837 15.2517 36.4354 15.0007 36.7455 15.0007C37.0556 15.0007 37.3073 15.2525 37.3073 15.5625V19.8657C37.3073 20.1764 37.0556 20.4275 36.7455 20.4275C36.4354 20.4275 36.1837 20.1757 36.1837 19.8657Z" fill="#F5DA76"/>
</g>
<defs>
<linearGradient id="paint0_linear_2501_84" x1="9.83795" y1="9.83796" x2="54.5559" y2="59.9221" gradientUnits="userSpaceOnUse">
<stop stop-color="#F5DA76"/>
<stop offset="0.551987" stop-color="#1B47AB" stop-opacity="0"/>
<stop offset="1" stop-color="#F5DA76"/>
</linearGradient>
<clipPath id="clip0_2501_84">
<rect width="36" height="36" fill="white" transform="translate(15 15)"/>
</clipPath>
</defs>
</svg>
