<svg width="18" height="19" viewBox="0 0 18 19" fill="none" xmlns="http://www.w3.org/2000/svg">
<g clip-path="url(#clip0_39_619)">
<path d="M7.73678 1.10973C7.72483 1.18337 7.71931 1.2579 7.72028 1.3325L7.72028 14.0311L7.59149 13.7542C7.46338 13.4836 7.28905 13.2373 7.07633 13.0266L3.51532 9.46556C3.06761 8.99657 2.3474 8.91777 1.80886 9.27882C1.23499 9.69903 1.11038 10.5049 1.5306 11.0788C1.56456 11.1252 1.60159 11.1692 1.64144 11.2107L8.08089 17.6501C8.58357 18.1534 9.399 18.1538 9.90225 17.6511L9.90325 17.6501L16.3427 11.2107C16.8449 10.707 16.8438 9.89157 16.3402 9.3893C16.3005 9.34977 16.2584 9.31287 16.2139 9.27882C15.6754 8.91777 14.9552 8.99657 14.5075 9.46556L10.94 13.0201C10.7508 13.2091 10.5923 13.4263 10.4699 13.6641L10.2961 14.0505L10.2961 1.40337C10.3205 0.745458 9.86091 0.168243 9.21423 0.044645C8.51213 -0.0692123 7.85068 0.407631 7.73678 1.10973Z" fill="#F5DA76"/>
</g>
<defs>
<clipPath id="clip0_39_619">
<rect width="18" height="18" fill="white" transform="translate(0 18.0278) rotate(-90)"/>
</clipPath>
</defs>
</svg>
