<svg width="12" height="7" viewBox="0 0 12 7" fill="none" xmlns="http://www.w3.org/2000/svg">
<path opacity="0.5" fill-rule="evenodd" clip-rule="evenodd" d="M0.227613 0.247713C0.373543 0.101965 0.571357 0.0200991 0.777605 0.0200991C0.983852 0.0200991 1.18167 0.101965 1.3276 0.247713L5.9662 4.88632L10.6048 0.247713C10.6761 0.171247 10.762 0.109915 10.8575 0.0673765C10.9529 0.0248383 11.056 0.00196493 11.1605 0.000121122C11.265 -0.00172268 11.3688 0.0175009 11.4657 0.0566448C11.5626 0.0957886 11.6506 0.154051 11.7245 0.227957C11.7985 0.301862 11.8567 0.389895 11.8959 0.486805C11.935 0.583716 11.9542 0.687518 11.9524 0.792019C11.9505 0.896521 11.9277 0.999581 11.8851 1.09505C11.8426 1.19052 11.7813 1.27644 11.7048 1.34769L6.51619 6.53629C6.37026 6.68204 6.17245 6.76391 5.9662 6.76391C5.75995 6.76391 5.56214 6.68204 5.41621 6.53629L0.227613 1.34769C0.081865 1.20177 0 1.00395 0 0.797704C0 0.591456 0.081865 0.393643 0.227613 0.247713Z" fill="white"/>
</svg>
