<svg width="67" height="67" viewBox="0 0 67 67" fill="none" xmlns="http://www.w3.org/2000/svg">
<circle cx="33.0913" cy="33.0913" r="32.8413" fill="#2241AA" stroke="url(#paint0_linear_2501_85)" stroke-width="0.5"/>
<path d="M21.2038 36.1539C21.2038 40.772 23.813 44.9937 27.9435 47.059C32.0741 49.1243 37.0171 48.6786 40.7116 45.9077L40.6516 45.8277L40.7116 45.9077C40.855 45.8002 40.9498 45.6401 40.9751 45.4626C41.0004 45.2852 40.9543 45.105 40.8467 44.9616C40.7392 44.8183 40.5791 44.7235 40.4016 44.6982C40.2242 44.6728 40.044 44.719 39.9006 44.8266L39.9006 44.8266C35.8736 47.8501 30.2949 47.7025 26.4334 44.4703C22.5724 41.2385 21.4448 35.7737 23.7112 31.2777C23.7544 31.1986 23.7814 31.1116 23.7905 31.0218C23.7997 30.9315 23.7905 30.8403 23.7637 30.7535C23.7368 30.6668 23.6927 30.5863 23.6341 30.517C23.5754 30.4477 23.5034 30.3909 23.4223 30.35C23.3413 30.3091 23.2528 30.285 23.1622 30.2791C23.0716 30.2731 22.9807 30.2855 22.895 30.3155C22.8093 30.3454 22.7305 30.3923 22.6633 30.4534C22.5966 30.5141 22.5427 30.5875 22.5048 30.6692C21.6441 32.3691 21.1983 34.2486 21.2038 36.1539ZM21.2038 36.1539C21.2038 36.1539 21.2038 36.1538 21.2038 36.1538H21.3038L21.2038 36.1541C21.2038 36.154 21.2038 36.154 21.2038 36.1539ZM26.0805 26.4002L26.0805 26.4002C28.1876 24.8106 30.7569 23.9542 33.3964 23.9616M26.0805 26.4002L44.181 41.6278C45.0455 39.933 45.4937 38.0566 45.4887 36.154L45.5887 36.1539C45.5887 36.1538 45.5887 36.1538 45.5887 36.1537C45.5812 29.4232 40.1269 23.969 33.3964 23.9616M26.0805 26.4002L26.0793 26.4012M26.0805 26.4002L26.0793 26.4012M33.3964 23.9616C33.3963 23.9616 33.3963 23.9616 33.3963 23.9616L33.3962 24.0616L33.3965 23.9616C33.3964 23.9616 33.3964 23.9616 33.3964 23.9616ZM26.0793 26.4012C25.9395 26.51 25.8481 26.6693 25.8246 26.8449C25.8011 27.0205 25.8475 27.1983 25.9538 27.34C26.0601 27.4818 26.2178 27.5761 26.3929 27.6027C26.568 27.6294 26.7466 27.5862 26.8903 27.4825L26.8903 27.4825M26.0793 26.4012L26.8903 27.4825M26.8903 27.4825L26.8917 27.4815M26.8903 27.4825L26.8917 27.4815M26.8917 27.4815C30.9243 24.4616 36.5058 24.617 40.3642 27.8566M26.8917 27.4815L40.3642 27.8566M40.3642 27.8566C44.2226 31.0961 45.3415 36.5664 43.0651 41.0608L40.3642 27.8566Z" fill="#F5DA76" stroke="#F5DA76" stroke-width="0.2"/>
<mask id="path-3-outside-1_2501_85" maskUnits="userSpaceOnUse" x="23.7568" y="15" width="19" height="30" fill="black">
<rect fill="white" x="23.7568" y="15" width="19" height="30"/>
<path d="M40.5293 32.1808L37.0116 31.6494C36.9129 31.6322 36.8198 31.5911 36.7406 31.5297C36.6614 31.4683 36.5985 31.3884 36.5573 31.297L34.9714 27.9572C34.8349 27.6536 34.6136 27.396 34.3341 27.2152C34.0546 27.0345 33.7288 26.9383 33.396 26.9383C33.0631 26.9383 32.7374 27.0345 32.4579 27.2152C32.1784 27.396 31.9571 27.6536 31.8205 27.9572L30.2347 31.297C30.1935 31.3884 30.1306 31.4683 30.0514 31.5297C29.9722 31.5912 29.8791 31.6322 29.7803 31.6494L26.2626 32.1808C25.939 32.232 25.636 32.3721 25.3875 32.5857C25.1391 32.7993 24.955 33.0778 24.8558 33.3901C24.7451 33.7152 24.7268 34.0646 24.8032 34.3995C24.8796 34.7343 25.0475 35.0414 25.2883 35.2863L27.8104 37.8436C27.888 37.9238 27.9455 38.0212 27.9782 38.1279C28.0109 38.2346 28.0179 38.3475 27.9987 38.4574L27.3998 42.0851C27.3398 42.426 27.3775 42.777 27.5085 43.0973C27.6396 43.4177 27.8586 43.6945 28.1404 43.8956C28.4011 44.0825 28.7095 44.1918 29.0298 44.2107C29.3501 44.2297 29.6692 44.1575 29.9502 44.0027L33.1288 42.2654C33.2104 42.2198 33.3024 42.1958 33.3959 42.1958C33.4895 42.1958 33.5815 42.2198 33.6631 42.2654L36.8417 44.0027C37.1226 44.1577 37.4418 44.23 37.7621 44.211C38.0824 44.1921 38.3908 44.0827 38.6515 43.8956C38.9333 43.6945 39.1523 43.4177 39.2834 43.0973C39.4144 42.777 39.4521 42.426 39.392 42.0851L38.7932 38.4574C38.7739 38.3477 38.7808 38.235 38.8132 38.1285C38.8456 38.022 38.9027 37.9246 38.9797 37.8442L41.5036 35.2869C41.7444 35.0418 41.9123 34.7347 41.9887 34.3998C42.0651 34.0648 42.0469 33.7153 41.9361 33.3901C41.837 33.0778 41.6529 32.7993 41.4044 32.5857C41.156 32.3721 40.853 32.232 40.5293 32.1808ZM40.6837 34.4755L38.1604 37.0328C37.9553 37.2428 37.8028 37.4984 37.7152 37.7785C37.6277 38.0587 37.6075 38.3556 37.6565 38.6451L38.2554 42.2728C38.2794 42.4007 38.2667 42.5327 38.2189 42.6538C38.1712 42.7748 38.0902 42.8799 37.9854 42.9569C37.9007 43.0193 37.7999 43.0559 37.6949 43.0622C37.59 43.0685 37.4855 43.0444 37.394 42.9926L34.2154 41.2553C33.9643 41.1174 33.6824 41.0451 33.396 41.0451C33.1095 41.0451 32.8277 41.1174 32.5766 41.2553L29.398 42.9926C29.3065 43.0445 29.202 43.0688 29.097 43.0624C28.992 43.0561 28.8911 43.0194 28.8066 42.9569C28.7017 42.8799 28.6208 42.7748 28.573 42.6538C28.5252 42.5327 28.5126 42.4007 28.5365 42.2728L29.1354 38.6451C29.184 38.3562 29.1637 38.06 29.0763 37.7804C28.9888 37.5009 28.8367 37.2459 28.6322 37.0362L26.1083 34.4778C26.0174 34.3836 25.9544 34.2662 25.9263 34.1384C25.8981 34.0107 25.9059 33.8776 25.9487 33.754C25.9813 33.6438 26.044 33.5448 26.1299 33.4685C26.2158 33.3922 26.3214 33.3414 26.4347 33.3221L29.9525 32.7906C30.2382 32.746 30.5085 32.6316 30.7395 32.4577C30.9704 32.2837 31.155 32.0555 31.2769 31.7933L32.8627 28.4535C32.9065 28.3475 32.9807 28.2568 33.0761 28.193C33.1714 28.1292 33.2836 28.0951 33.3983 28.0951C33.513 28.0951 33.6251 28.1292 33.7204 28.193C33.8158 28.2568 33.89 28.3475 33.9338 28.4535L35.5196 31.7933C35.6415 32.0555 35.8261 32.2837 36.0571 32.4577C36.2881 32.6316 36.5584 32.746 36.8441 32.7906L40.3618 33.3221C40.4751 33.3414 40.5807 33.3922 40.6666 33.4685C40.7525 33.5448 40.8153 33.6438 40.8478 33.754C40.8897 33.8779 40.8965 34.0109 40.8676 34.1384C40.8386 34.266 40.775 34.383 40.6837 34.4766V34.4755ZM33.9718 20.0308V16.5758C33.9718 16.4231 33.9112 16.2766 33.8032 16.1686C33.6952 16.0607 33.5488 16 33.396 16C33.2433 16 33.0969 16.0607 32.9889 16.1686C32.8809 16.2766 32.8202 16.4231 32.8202 16.5758V20.0308C32.8202 20.1835 32.8809 20.33 32.9889 20.4379C33.0969 20.5459 33.2433 20.6066 33.396 20.6066C33.5488 20.6066 33.6952 20.5459 33.8032 20.4379C33.9112 20.33 33.9718 20.1835 33.9718 20.0308ZM38.0026 20.6067V16.5758C38.0026 16.4231 37.942 16.2766 37.834 16.1686C37.726 16.0607 37.5795 16 37.4268 16C37.2741 16 37.1276 16.0607 37.0197 16.1686C36.9117 16.2766 36.851 16.4231 36.851 16.5758V20.6066C36.851 20.9246 37.1088 21.1824 37.4268 21.1824C37.7449 21.1824 38.0026 20.9247 38.0026 20.6067ZM40.8818 22.3341C40.8818 22.4869 40.9425 22.6333 41.0504 22.7413C41.1584 22.8493 41.3049 22.91 41.4576 22.91C41.6103 22.91 41.7568 22.8493 41.8648 22.7413C41.9727 22.6333 42.0334 22.4869 42.0334 22.3341V20.0308C42.0334 19.8781 41.9727 19.7316 41.8648 19.6236C41.7568 19.5156 41.6103 19.455 41.4576 19.455C41.3049 19.455 41.1584 19.5156 41.0504 19.6236C40.9425 19.7316 40.8818 19.8781 40.8818 20.0308V22.3341ZM41.4576 18.3033C41.6103 18.3033 41.7568 18.2426 41.8648 18.1346C41.9727 18.0267 42.0334 17.8802 42.0334 17.7275V16.5758C42.0334 16.4231 41.9727 16.2766 41.8648 16.1686C41.7568 16.0607 41.6103 16 41.4576 16C41.3049 16 41.1584 16.0607 41.0504 16.1686C40.9425 16.2766 40.8818 16.4231 40.8818 16.5758V17.7275C40.8818 17.8802 40.9425 18.0267 41.0504 18.1346C41.1584 18.2426 41.3049 18.3033 41.4576 18.3033Z"/>
</mask>
<path d="M40.5293 32.1808L37.0116 31.6494C36.9129 31.6322 36.8198 31.5911 36.7406 31.5297C36.6614 31.4683 36.5985 31.3884 36.5573 31.297L34.9714 27.9572C34.8349 27.6536 34.6136 27.396 34.3341 27.2152C34.0546 27.0345 33.7288 26.9383 33.396 26.9383C33.0631 26.9383 32.7374 27.0345 32.4579 27.2152C32.1784 27.396 31.9571 27.6536 31.8205 27.9572L30.2347 31.297C30.1935 31.3884 30.1306 31.4683 30.0514 31.5297C29.9722 31.5912 29.8791 31.6322 29.7803 31.6494L26.2626 32.1808C25.939 32.232 25.636 32.3721 25.3875 32.5857C25.1391 32.7993 24.955 33.0778 24.8558 33.3901C24.7451 33.7152 24.7268 34.0646 24.8032 34.3995C24.8796 34.7343 25.0475 35.0414 25.2883 35.2863L27.8104 37.8436C27.888 37.9238 27.9455 38.0212 27.9782 38.1279C28.0109 38.2346 28.0179 38.3475 27.9987 38.4574L27.3998 42.0851C27.3398 42.426 27.3775 42.777 27.5085 43.0973C27.6396 43.4177 27.8586 43.6945 28.1404 43.8956C28.4011 44.0825 28.7095 44.1918 29.0298 44.2107C29.3501 44.2297 29.6692 44.1575 29.9502 44.0027L33.1288 42.2654C33.2104 42.2198 33.3024 42.1958 33.3959 42.1958C33.4895 42.1958 33.5815 42.2198 33.6631 42.2654L36.8417 44.0027C37.1226 44.1577 37.4418 44.23 37.7621 44.211C38.0824 44.1921 38.3908 44.0827 38.6515 43.8956C38.9333 43.6945 39.1523 43.4177 39.2834 43.0973C39.4144 42.777 39.4521 42.426 39.392 42.0851L38.7932 38.4574C38.7739 38.3477 38.7808 38.235 38.8132 38.1285C38.8456 38.022 38.9027 37.9246 38.9797 37.8442L41.5036 35.2869C41.7444 35.0418 41.9123 34.7347 41.9887 34.3998C42.0651 34.0648 42.0469 33.7153 41.9361 33.3901C41.837 33.0778 41.6529 32.7993 41.4044 32.5857C41.156 32.3721 40.853 32.232 40.5293 32.1808ZM40.6837 34.4755L38.1604 37.0328C37.9553 37.2428 37.8028 37.4984 37.7152 37.7785C37.6277 38.0587 37.6075 38.3556 37.6565 38.6451L38.2554 42.2728C38.2794 42.4007 38.2667 42.5327 38.2189 42.6538C38.1712 42.7748 38.0902 42.8799 37.9854 42.9569C37.9007 43.0193 37.7999 43.0559 37.6949 43.0622C37.59 43.0685 37.4855 43.0444 37.394 42.9926L34.2154 41.2553C33.9643 41.1174 33.6824 41.0451 33.396 41.0451C33.1095 41.0451 32.8277 41.1174 32.5766 41.2553L29.398 42.9926C29.3065 43.0445 29.202 43.0688 29.097 43.0624C28.992 43.0561 28.8911 43.0194 28.8066 42.9569C28.7017 42.8799 28.6208 42.7748 28.573 42.6538C28.5252 42.5327 28.5126 42.4007 28.5365 42.2728L29.1354 38.6451C29.184 38.3562 29.1637 38.06 29.0763 37.7804C28.9888 37.5009 28.8367 37.2459 28.6322 37.0362L26.1083 34.4778C26.0174 34.3836 25.9544 34.2662 25.9263 34.1384C25.8981 34.0107 25.9059 33.8776 25.9487 33.754C25.9813 33.6438 26.044 33.5448 26.1299 33.4685C26.2158 33.3922 26.3214 33.3414 26.4347 33.3221L29.9525 32.7906C30.2382 32.746 30.5085 32.6316 30.7395 32.4577C30.9704 32.2837 31.155 32.0555 31.2769 31.7933L32.8627 28.4535C32.9065 28.3475 32.9807 28.2568 33.0761 28.193C33.1714 28.1292 33.2836 28.0951 33.3983 28.0951C33.513 28.0951 33.6251 28.1292 33.7204 28.193C33.8158 28.2568 33.89 28.3475 33.9338 28.4535L35.5196 31.7933C35.6415 32.0555 35.8261 32.2837 36.0571 32.4577C36.2881 32.6316 36.5584 32.746 36.8441 32.7906L40.3618 33.3221C40.4751 33.3414 40.5807 33.3922 40.6666 33.4685C40.7525 33.5448 40.8153 33.6438 40.8478 33.754C40.8897 33.8779 40.8965 34.0109 40.8676 34.1384C40.8386 34.266 40.775 34.383 40.6837 34.4766V34.4755ZM33.9718 20.0308V16.5758C33.9718 16.4231 33.9112 16.2766 33.8032 16.1686C33.6952 16.0607 33.5488 16 33.396 16C33.2433 16 33.0969 16.0607 32.9889 16.1686C32.8809 16.2766 32.8202 16.4231 32.8202 16.5758V20.0308C32.8202 20.1835 32.8809 20.33 32.9889 20.4379C33.0969 20.5459 33.2433 20.6066 33.396 20.6066C33.5488 20.6066 33.6952 20.5459 33.8032 20.4379C33.9112 20.33 33.9718 20.1835 33.9718 20.0308ZM38.0026 20.6067V16.5758C38.0026 16.4231 37.942 16.2766 37.834 16.1686C37.726 16.0607 37.5795 16 37.4268 16C37.2741 16 37.1276 16.0607 37.0197 16.1686C36.9117 16.2766 36.851 16.4231 36.851 16.5758V20.6066C36.851 20.9246 37.1088 21.1824 37.4268 21.1824C37.7449 21.1824 38.0026 20.9247 38.0026 20.6067ZM40.8818 22.3341C40.8818 22.4869 40.9425 22.6333 41.0504 22.7413C41.1584 22.8493 41.3049 22.91 41.4576 22.91C41.6103 22.91 41.7568 22.8493 41.8648 22.7413C41.9727 22.6333 42.0334 22.4869 42.0334 22.3341V20.0308C42.0334 19.8781 41.9727 19.7316 41.8648 19.6236C41.7568 19.5156 41.6103 19.455 41.4576 19.455C41.3049 19.455 41.1584 19.5156 41.0504 19.6236C40.9425 19.7316 40.8818 19.8781 40.8818 20.0308V22.3341ZM41.4576 18.3033C41.6103 18.3033 41.7568 18.2426 41.8648 18.1346C41.9727 18.0267 42.0334 17.8802 42.0334 17.7275V16.5758C42.0334 16.4231 41.9727 16.2766 41.8648 16.1686C41.7568 16.0607 41.6103 16 41.4576 16C41.3049 16 41.1584 16.0607 41.0504 16.1686C40.9425 16.2766 40.8818 16.4231 40.8818 16.5758V17.7275C40.8818 17.8802 40.9425 18.0267 41.0504 18.1346C41.1584 18.2426 41.3049 18.3033 41.4576 18.3033Z" fill="#F5DA76"/>
<path d="M40.5293 32.1808L37.0116 31.6494C36.9129 31.6322 36.8198 31.5911 36.7406 31.5297C36.6614 31.4683 36.5985 31.3884 36.5573 31.297L34.9714 27.9572C34.8349 27.6536 34.6136 27.396 34.3341 27.2152C34.0546 27.0345 33.7288 26.9383 33.396 26.9383C33.0631 26.9383 32.7374 27.0345 32.4579 27.2152C32.1784 27.396 31.9571 27.6536 31.8205 27.9572L30.2347 31.297C30.1935 31.3884 30.1306 31.4683 30.0514 31.5297C29.9722 31.5912 29.8791 31.6322 29.7803 31.6494L26.2626 32.1808C25.939 32.232 25.636 32.3721 25.3875 32.5857C25.1391 32.7993 24.955 33.0778 24.8558 33.3901C24.7451 33.7152 24.7268 34.0646 24.8032 34.3995C24.8796 34.7343 25.0475 35.0414 25.2883 35.2863L27.8104 37.8436C27.888 37.9238 27.9455 38.0212 27.9782 38.1279C28.0109 38.2346 28.0179 38.3475 27.9987 38.4574L27.3998 42.0851C27.3398 42.426 27.3775 42.777 27.5085 43.0973C27.6396 43.4177 27.8586 43.6945 28.1404 43.8956C28.4011 44.0825 28.7095 44.1918 29.0298 44.2107C29.3501 44.2297 29.6692 44.1575 29.9502 44.0027L33.1288 42.2654C33.2104 42.2198 33.3024 42.1958 33.3959 42.1958C33.4895 42.1958 33.5815 42.2198 33.6631 42.2654L36.8417 44.0027C37.1226 44.1577 37.4418 44.23 37.7621 44.211C38.0824 44.1921 38.3908 44.0827 38.6515 43.8956C38.9333 43.6945 39.1523 43.4177 39.2834 43.0973C39.4144 42.777 39.4521 42.426 39.392 42.0851L38.7932 38.4574C38.7739 38.3477 38.7808 38.235 38.8132 38.1285C38.8456 38.022 38.9027 37.9246 38.9797 37.8442L41.5036 35.2869C41.7444 35.0418 41.9123 34.7347 41.9887 34.3998C42.0651 34.0648 42.0469 33.7153 41.9361 33.3901C41.837 33.0778 41.6529 32.7993 41.4044 32.5857C41.156 32.3721 40.853 32.232 40.5293 32.1808ZM40.6837 34.4755L38.1604 37.0328C37.9553 37.2428 37.8028 37.4984 37.7152 37.7785C37.6277 38.0587 37.6075 38.3556 37.6565 38.6451L38.2554 42.2728C38.2794 42.4007 38.2667 42.5327 38.2189 42.6538C38.1712 42.7748 38.0902 42.8799 37.9854 42.9569C37.9007 43.0193 37.7999 43.0559 37.6949 43.0622C37.59 43.0685 37.4855 43.0444 37.394 42.9926L34.2154 41.2553C33.9643 41.1174 33.6824 41.0451 33.396 41.0451C33.1095 41.0451 32.8277 41.1174 32.5766 41.2553L29.398 42.9926C29.3065 43.0445 29.202 43.0688 29.097 43.0624C28.992 43.0561 28.8911 43.0194 28.8066 42.9569C28.7017 42.8799 28.6208 42.7748 28.573 42.6538C28.5252 42.5327 28.5126 42.4007 28.5365 42.2728L29.1354 38.6451C29.184 38.3562 29.1637 38.06 29.0763 37.7804C28.9888 37.5009 28.8367 37.2459 28.6322 37.0362L26.1083 34.4778C26.0174 34.3836 25.9544 34.2662 25.9263 34.1384C25.8981 34.0107 25.9059 33.8776 25.9487 33.754C25.9813 33.6438 26.044 33.5448 26.1299 33.4685C26.2158 33.3922 26.3214 33.3414 26.4347 33.3221L29.9525 32.7906C30.2382 32.746 30.5085 32.6316 30.7395 32.4577C30.9704 32.2837 31.155 32.0555 31.2769 31.7933L32.8627 28.4535C32.9065 28.3475 32.9807 28.2568 33.0761 28.193C33.1714 28.1292 33.2836 28.0951 33.3983 28.0951C33.513 28.0951 33.6251 28.1292 33.7204 28.193C33.8158 28.2568 33.89 28.3475 33.9338 28.4535L35.5196 31.7933C35.6415 32.0555 35.8261 32.2837 36.0571 32.4577C36.2881 32.6316 36.5584 32.746 36.8441 32.7906L40.3618 33.3221C40.4751 33.3414 40.5807 33.3922 40.6666 33.4685C40.7525 33.5448 40.8153 33.6438 40.8478 33.754C40.8897 33.8779 40.8965 34.0109 40.8676 34.1384C40.8386 34.266 40.775 34.383 40.6837 34.4766V34.4755ZM33.9718 20.0308V16.5758C33.9718 16.4231 33.9112 16.2766 33.8032 16.1686C33.6952 16.0607 33.5488 16 33.396 16C33.2433 16 33.0969 16.0607 32.9889 16.1686C32.8809 16.2766 32.8202 16.4231 32.8202 16.5758V20.0308C32.8202 20.1835 32.8809 20.33 32.9889 20.4379C33.0969 20.5459 33.2433 20.6066 33.396 20.6066C33.5488 20.6066 33.6952 20.5459 33.8032 20.4379C33.9112 20.33 33.9718 20.1835 33.9718 20.0308ZM38.0026 20.6067V16.5758C38.0026 16.4231 37.942 16.2766 37.834 16.1686C37.726 16.0607 37.5795 16 37.4268 16C37.2741 16 37.1276 16.0607 37.0197 16.1686C36.9117 16.2766 36.851 16.4231 36.851 16.5758V20.6066C36.851 20.9246 37.1088 21.1824 37.4268 21.1824C37.7449 21.1824 38.0026 20.9247 38.0026 20.6067ZM40.8818 22.3341C40.8818 22.4869 40.9425 22.6333 41.0504 22.7413C41.1584 22.8493 41.3049 22.91 41.4576 22.91C41.6103 22.91 41.7568 22.8493 41.8648 22.7413C41.9727 22.6333 42.0334 22.4869 42.0334 22.3341V20.0308C42.0334 19.8781 41.9727 19.7316 41.8648 19.6236C41.7568 19.5156 41.6103 19.455 41.4576 19.455C41.3049 19.455 41.1584 19.5156 41.0504 19.6236C40.9425 19.7316 40.8818 19.8781 40.8818 20.0308V22.3341ZM41.4576 18.3033C41.6103 18.3033 41.7568 18.2426 41.8648 18.1346C41.9727 18.0267 42.0334 17.8802 42.0334 17.7275V16.5758C42.0334 16.4231 41.9727 16.2766 41.8648 16.1686C41.7568 16.0607 41.6103 16 41.4576 16C41.3049 16 41.1584 16.0607 41.0504 16.1686C40.9425 16.2766 40.8818 16.4231 40.8818 16.5758V17.7275C40.8818 17.8802 40.9425 18.0267 41.0504 18.1346C41.1584 18.2426 41.3049 18.3033 41.4576 18.3033Z" stroke="#F5DA76" stroke-width="0.4" mask="url(#path-3-outside-1_2501_85)"/>
<path d="M47.8917 36.1541C47.8944 33.7603 47.3006 31.4037 46.1642 29.2971V19.455C46.1642 19.2757 46.093 19.1038 45.9662 18.9771C45.8395 18.8504 45.6676 18.7792 45.4884 18.7792C45.3091 18.7792 45.1373 18.8504 45.0105 18.9771C44.8838 19.1038 44.8126 19.2757 44.8126 19.455V27.2308C43.4899 25.5358 41.8055 24.1556 39.8808 23.1917C37.8678 22.1835 35.6474 21.6585 33.3959 21.6585C31.1445 21.6585 28.9241 22.1835 26.911 23.1917C24.9864 24.1556 23.302 25.5358 21.9793 27.2308V19.455C21.9793 19.2757 21.9081 19.1038 21.7813 18.9771C21.6546 18.8504 21.4827 18.7792 21.3035 18.7792C21.1242 18.7792 20.9524 18.8504 20.8256 18.9771C20.6989 19.1038 20.6277 19.2757 20.6277 19.455V29.2971C17.771 34.6118 18.5051 41.1417 22.4729 45.6896C26.4463 50.244 32.8285 51.855 38.4874 49.7321C44.1463 47.6092 47.8942 42.198 47.8917 36.1541ZM47.8917 36.1541C47.8917 36.1541 47.8917 36.1541 47.8917 36.1541L47.7917 36.154L47.8917 36.154C47.8917 36.154 47.8917 36.154 47.8917 36.1541ZM33.3958 49.2981C26.1366 49.298 20.2518 43.4132 20.2518 36.154C20.2518 28.8947 26.1366 23.0099 33.3959 23.0099C40.6551 23.0099 46.5399 28.8947 46.54 36.1539C46.5318 43.4098 40.6518 49.2899 33.3958 49.2981Z" fill="#F5DA76" stroke="#F5DA76" stroke-width="0.2"/>
<path d="M30.0413 16.5758V20.6066C30.0413 20.6066 30.0413 20.6067 30.0413 20.6067C30.0413 20.6954 30.0238 20.7833 29.9898 20.8653C29.9559 20.9473 29.9061 21.0218 29.8433 21.0845C29.7806 21.1473 29.7061 21.1971 29.6241 21.231C29.5421 21.2649 29.4542 21.2824 29.3654 21.2824L30.0413 16.5758ZM30.0413 16.5758C30.0413 16.3966 29.9701 16.2247 29.8433 16.0979M30.0413 16.5758L29.8433 16.0979M29.8433 16.0979C29.7166 15.9712 29.5447 15.9 29.3654 15.9M29.8433 16.0979L29.3654 15.9M29.3654 15.9C29.1862 15.9 29.0143 15.9712 28.8876 16.0979M29.3654 15.9L28.8876 16.0979M28.8876 16.0979C28.7608 16.2247 28.6896 16.3966 28.6896 16.5758M28.8876 16.0979L28.6896 16.5758M28.6896 16.5758V20.6066M28.6896 16.5758V20.6066M28.6896 20.6066C28.6896 20.7858 28.7608 20.9577 28.8876 21.0845M28.6896 20.6066L28.8876 21.0845M28.8876 21.0845C29.0143 21.2112 29.1862 21.2824 29.3654 21.2824L28.8876 21.0845ZM25.8125 18.2054C25.6858 18.3321 25.5139 18.4033 25.3347 18.4033L25.8125 18.2054ZM25.8125 18.2054C25.9393 18.0786 26.0105 17.9067 26.0105 17.7275M25.8125 18.2054L26.0105 17.7275M26.0105 17.7275V16.5758M26.0105 17.7275V16.5758M26.0105 16.5758C26.0105 16.3966 25.9393 16.2247 25.8125 16.0979M26.0105 16.5758L25.8125 16.0979M25.8125 16.0979C25.6858 15.9712 25.5139 15.9 25.3347 15.9M25.8125 16.0979L25.3347 15.9M25.3347 15.9C25.1554 15.9 24.9835 15.9712 24.8568 16.0979M25.3347 15.9L24.8568 16.0979M24.8568 16.0979C24.7301 16.2247 24.6589 16.3966 24.6589 16.5758M24.8568 16.0979L24.6589 16.5758M24.6589 16.5758V17.7275M24.6589 16.5758V17.7275M24.6589 17.7275C24.6589 17.7275 24.6589 17.7275 24.6589 17.7275M24.6589 17.7275V17.7275M24.6589 17.7275C24.6588 17.8162 24.6763 17.9041 24.7103 17.9861M24.6589 17.7275L24.7103 17.9861M24.7103 17.9861C24.7442 18.0681 24.794 18.1426 24.8568 18.2054M24.7103 17.9861L24.8568 18.2054M24.8568 18.2054C24.9195 18.2681 24.994 18.3179 25.076 18.3519M24.8568 18.2054L25.076 18.3519M25.076 18.3519C25.158 18.3858 25.2459 18.4033 25.3347 18.4033L25.076 18.3519ZM24.6588 22.3341C24.6588 22.5134 24.73 22.6853 24.8567 22.812C24.9835 22.9388 25.1554 23.01 25.3346 23.01C25.5138 23.01 25.6857 22.9388 25.8125 22.812C25.9392 22.6853 26.0104 22.5134 26.0104 22.3341V20.0308C26.0104 19.8515 25.9392 19.6797 25.8125 19.5529C25.6857 19.4262 25.5138 19.355 25.3346 19.355C25.1554 19.355 24.9835 19.4262 24.8567 19.5529C24.73 19.6797 24.6588 19.8515 24.6588 20.0308V22.3341Z" fill="#F5DA76" stroke="#F5DA76" stroke-width="0.2"/>
<defs>
<linearGradient id="paint0_linear_2501_85" x1="9.83795" y1="9.83796" x2="54.5559" y2="59.9221" gradientUnits="userSpaceOnUse">
<stop stop-color="#F5DA76"/>
<stop offset="0.551987" stop-color="#1B47AB" stop-opacity="0"/>
<stop offset="1" stop-color="#F5DA76"/>
</linearGradient>
</defs>
</svg>
