<svg width="28" height="28" viewBox="0 0 28 28" fill="none" xmlns="http://www.w3.org/2000/svg">
<circle cx="13.999" cy="14" r="14" fill="#E4C36A"/>
<path d="M18.5639 8.53516L18.6493 8.4498H18.5286H16.0604C15.8913 8.4498 15.7291 8.38263 15.6096 8.26307C15.49 8.14352 15.4228 7.98136 15.4228 7.81228C15.4228 7.6432 15.49 7.48104 15.6096 7.36148C15.7291 7.24192 15.8913 7.17476 16.0604 7.17476H20.1875C20.3566 7.17476 20.5188 7.24192 20.6383 7.36148C20.7579 7.48104 20.8251 7.6432 20.8251 7.81228V11.9374C20.8251 12.1065 20.7579 12.2687 20.6383 12.3882C20.5188 12.5078 20.3566 12.5749 20.1875 12.5749C20.0185 12.5749 19.857 12.5078 19.7374 12.3882C19.6179 12.2687 19.5507 12.1065 19.5507 11.9374V9.47196V9.35125L19.4654 9.4366L13.5485 15.3535C13.5484 15.3536 13.5483 15.3537 13.5481 15.3538C13.4279 15.4697 13.267 15.5339 13.1 15.5324C12.9329 15.531 12.773 15.4639 12.6548 15.3457C12.5366 15.2275 12.4695 15.0676 12.4681 14.9005C12.4666 14.7335 12.5308 14.5726 12.6467 14.4524C12.6468 14.4523 12.6469 14.4521 12.647 14.452L18.5639 8.53516ZM7.76203 9.82679C8.13946 9.44936 8.65136 9.23732 9.18513 9.23732H13.3103C13.4793 9.23732 13.6415 9.30449 13.7611 9.42405C13.8806 9.54361 13.9478 9.70576 13.9478 9.87485C13.9478 10.0439 13.8806 10.2061 13.7611 10.3256C13.6415 10.4452 13.4793 10.5124 13.3103 10.5124H9.18513C8.98952 10.5124 8.80193 10.5901 8.66362 10.7284C8.52531 10.8667 8.4476 11.0543 8.4476 11.2499V18.8126C8.4476 19.0082 8.52531 19.1958 8.66362 19.3341C8.80193 19.4725 8.98952 19.5502 9.18513 19.5502H16.7479C16.9435 19.5502 17.1311 19.4725 17.2694 19.3341C17.4077 19.1958 17.4854 19.0082 17.4854 18.8126V14.6875C17.4854 14.5184 17.5526 14.3563 17.6721 14.2367C17.7917 14.1171 17.9538 14.05 18.1229 14.05C18.292 14.05 18.4542 14.1171 18.5737 14.2367C18.6933 14.3563 18.7604 14.5184 18.7604 14.6875V18.8126C18.7604 19.3464 18.5484 19.8583 18.171 20.2357C17.7935 20.6132 17.2816 20.8252 16.7479 20.8252H9.18513C8.65136 20.8252 8.13946 20.6132 7.76203 20.2357C7.3846 19.8583 7.17256 19.3464 7.17256 18.8126V11.2499C7.17256 10.7161 7.3846 10.2042 7.76203 9.82679Z" fill="#102B73" stroke="#102B73" stroke-width="0.1"/>
</svg>
