<svg width="15" height="15" viewBox="0 0 15 15" fill="none" xmlns="http://www.w3.org/2000/svg">
<path d="M2.93832 1.31907L7.5 5.88056L12.038 1.3427C12.1383 1.23601 12.259 1.15066 12.3931 1.09178C12.5271 1.03289 12.6716 1.00167 12.818 1C13.1315 1 13.432 1.1245 13.6537 1.34612C13.8753 1.56774 13.9998 1.86832 13.9998 2.18173C14.0026 2.32662 13.9757 2.47053 13.9208 2.60465C13.8659 2.73877 13.7842 2.86027 13.6807 2.96168L9.08359 7.49953L13.6807 12.0965C13.8755 12.287 13.9897 12.545 13.9998 12.8173C13.9998 13.1307 13.8753 13.4313 13.6537 13.6529C13.432 13.8746 13.1315 13.9991 12.818 13.9991C12.6674 14.0053 12.5171 13.9802 12.3768 13.9252C12.2364 13.8703 12.109 13.7868 12.0026 13.68L7.5 9.11851L2.95013 13.6682C2.85028 13.7713 2.73099 13.8537 2.59915 13.9104C2.4673 13.9672 2.32552 13.9974 2.18198 13.9991C1.86855 13.9991 1.56796 13.8746 1.34633 13.6529C1.1247 13.4313 1.00019 13.1307 1.00019 12.8173C0.997437 12.6725 1.02432 12.5285 1.07919 12.3944C1.13406 12.2603 1.21576 12.1388 1.31927 12.0374L5.91641 7.49953L1.31927 2.90259C1.1245 2.71205 1.01028 2.45402 1.00019 2.18173C1.00019 1.86832 1.1247 1.56774 1.34633 1.34612C1.56796 1.1245 1.86855 1 2.18198 1C2.4656 1.00355 2.73741 1.11817 2.93832 1.31907Z" fill="white"/>
</svg>
