<svg width="19" height="31" viewBox="0 0 19 31" fill="none" xmlns="http://www.w3.org/2000/svg">
<g id="719921_01 copy-02 1" clip-path="url(#clip0_511_8505)">
<g id="Objects">
<g id="Group">
<path id="Vector" d="M5.20115 11.7289C5.20115 11.7289 6.47368 10.0654 5.7052 7.99178C4.93211 5.9165 3.06207 5.27416 3.06207 5.27416C3.06207 5.27416 1.61959 7.24855 2.3737 9.27186C3.12319 11.2938 5.20115 11.7289 5.20115 11.7289Z" fill="white"/>
<path id="Vector_2" d="M8.64558 12.51C8.64558 12.51 10.8264 12.1395 12.1067 10.148C13.385 8.15732 12.4676 6.14767 12.4676 6.14767C12.4676 6.14767 10.4363 6.7298 9.12524 8.7732C7.81153 10.8159 8.64558 12.51 8.64558 12.51Z" fill="white"/>
<path id="Vector_3" d="M8.84783 18.6806C8.84783 18.6806 10.9937 18.0405 12.012 15.9348C13.0266 13.826 11.8308 11.9803 11.8308 11.9803C11.8308 11.9803 9.86799 12.8084 8.82458 14.9717C7.78132 17.1316 8.84783 18.6806 8.84783 18.6806Z" fill="white"/>
<path id="Vector_4" d="M11.3748 23.0556C11.3748 23.0556 13.4694 22.229 14.2876 20.0619C15.1032 17.892 13.7218 16.1829 13.7218 16.1829C13.7218 16.1829 11.8252 17.1764 10.9866 19.403C10.1478 21.6277 11.3748 23.0556 11.3748 23.0556Z" fill="white"/>
<path id="Vector_5" d="M15.0969 27.356C15.0969 27.356 16.9262 26.0033 17.0852 23.7688C17.2449 21.5343 15.3626 20.3377 15.3626 20.3377C15.3626 20.3377 13.7836 21.79 13.6195 24.0836C13.4577 26.3787 15.0969 27.356 15.0969 27.356Z" fill="white"/>
<path id="Vector_6" d="M8.05616 7.33116C8.05616 7.33116 9.99288 6.53235 10.5981 4.26078C11.2027 1.98889 10.1321 0.4039 10.1321 0.4039C10.1321 0.4039 7.88182 1.39127 7.2949 3.60637C6.70634 5.82084 8.05616 7.33116 8.05616 7.33116Z" fill="white"/>
<path id="Vector_7" d="M5.12079 16.4466C5.12079 16.4466 5.86915 14.5478 4.47158 12.856C3.07075 11.1626 1.02709 11.1069 1.02709 11.1069C1.02709 11.1069 0.207497 13.3415 1.56759 14.9912C2.93297 16.6423 5.12079 16.4466 5.12079 16.4466Z" fill="white"/>
<path id="Vector_8" d="M6.63793 21.1388C6.63793 21.1388 6.9462 19.1729 5.15781 17.8674C3.36775 16.5616 1.31156 16.9523 1.31156 16.9523C1.31156 16.9523 1.00826 19.2524 2.75306 20.5257C4.49788 21.7984 6.63793 21.1388 6.63793 21.1388Z" fill="white"/>
<path id="Vector_9" d="M9.0033 24.9141C9.0033 24.9141 8.69064 23.0153 6.51233 22.3443C4.33479 21.6715 2.42622 22.6348 2.42622 22.6348C2.42622 22.6348 2.85243 24.8381 4.97096 25.4944C7.09787 26.15 9.0033 24.9141 9.0033 24.9141Z" fill="white"/>
<path id="Vector_10" d="M10.0414 26.4772C7.76607 26.0723 5.96303 27.2387 5.96303 27.2387C5.96303 27.2387 6.66809 29.3481 8.88215 29.7429C11.1002 30.1389 12.8654 28.7051 12.8654 28.7051C12.8654 28.7051 12.3138 26.8834 10.0414 26.4772Z" fill="white"/>
<path id="Vector_11" d="M8.26726 8.63076L7.26037 8.24585C7.20217 8.35668 1.79632 19.531 16.2777 30.2675L17.0254 29.3693C3.24 19.148 8.05498 9.05608 8.26726 8.63076Z" fill="white"/>
</g>
</g>
</g>
<defs>
<clipPath id="clip0_511_8505">
<rect width="17" height="29.5492" fill="white" transform="translate(1.35938) rotate(2.63649)"/>
</clipPath>
</defs>
</svg>
