<svg width="42" height="31" viewBox="0 0 42 31" fill="none" xmlns="http://www.w3.org/2000/svg">
<g clip-path="url(#clip0_0_2584)">
<path d="M5.20163 11.7289C5.20163 11.7289 6.47417 10.0655 5.70568 7.99184C4.9326 5.91656 3.06256 5.27422 3.06256 5.27422C3.06256 5.27422 1.62008 7.24861 2.37419 9.27192C3.12368 11.2939 5.20163 11.7289 5.20163 11.7289Z" fill="#0D1627"/>
<path d="M8.6451 12.5101C8.6451 12.5101 10.8259 12.1395 12.1062 10.1481C13.3845 8.15738 12.4671 6.14773 12.4671 6.14773C12.4671 6.14773 10.4358 6.72986 9.12475 8.77326C7.81104 10.816 8.6451 12.5101 8.6451 12.5101Z" fill="#0D1627"/>
<path d="M8.84783 18.6805C8.84783 18.6805 10.9937 18.0404 12.012 15.9347C13.0266 13.826 11.8308 11.9803 11.8308 11.9803C11.8308 11.9803 9.86799 12.8083 8.82458 14.9717C7.78132 17.1316 8.84783 18.6805 8.84783 18.6805Z" fill="#0D1627"/>
<path d="M11.3748 23.0556C11.3748 23.0556 13.4694 22.229 14.2876 20.0619C15.1032 17.892 13.7218 16.1829 13.7218 16.1829C13.7218 16.1829 11.8252 17.1764 10.9866 19.403C10.1478 21.6277 11.3748 23.0556 11.3748 23.0556Z" fill="#0D1627"/>
<path d="M15.0964 27.356C15.0964 27.356 16.9257 26.0033 17.0847 23.7688C17.2444 21.5343 15.3622 20.3377 15.3622 20.3377C15.3622 20.3377 13.7831 21.79 13.619 24.0836C13.4572 26.3787 15.0964 27.356 15.0964 27.356Z" fill="#0D1627"/>
<path d="M8.05567 7.33122C8.05567 7.33122 9.9924 6.53241 10.5976 4.26084C11.2022 1.98895 10.1317 0.403961 10.1317 0.403961C10.1317 0.403961 7.88133 1.39133 7.29441 3.60643C6.70585 5.8209 8.05567 7.33122 8.05567 7.33122Z" fill="#0D1627"/>
<path d="M5.1203 16.4466C5.1203 16.4466 5.86866 14.5478 4.47109 12.856C3.07026 11.1626 1.0266 11.1069 1.0266 11.1069C1.0266 11.1069 0.207009 13.3415 1.56711 14.9912C2.93248 16.6423 5.1203 16.4466 5.1203 16.4466Z" fill="#0D1627"/>
<path d="M6.63793 21.1388C6.63793 21.1388 6.9462 19.1729 5.15781 17.8674C3.36775 16.5616 1.31156 16.9523 1.31156 16.9523C1.31156 16.9523 1.00826 19.2524 2.75306 20.5257C4.49788 21.7984 6.63793 21.1388 6.63793 21.1388Z" fill="#0D1627"/>
<path d="M9.00378 24.9141C9.00378 24.9141 8.69113 23.0153 6.51282 22.3443C4.33527 21.6715 2.42671 22.6348 2.42671 22.6348C2.42671 22.6348 2.85292 24.8381 4.97145 25.4944C7.09836 26.15 9.00378 24.9141 9.00378 24.9141Z" fill="#0D1627"/>
<path d="M10.0414 26.4772C7.76607 26.0723 5.96303 27.2386 5.96303 27.2386C5.96303 27.2386 6.66809 29.3481 8.88215 29.7428C11.1002 30.1389 12.8654 28.7051 12.8654 28.7051C12.8654 28.7051 12.3138 26.8834 10.0414 26.4772Z" fill="#0D1627"/>
<path d="M8.26726 8.63069L7.26037 8.24579C7.20217 8.35662 1.79632 19.5309 16.2777 30.2675L17.0254 29.3693C3.24 19.1479 8.05498 9.05602 8.26726 8.63069Z" fill="#0D1627"/>
</g>
<g clip-path="url(#clip1_0_2584)">
<path d="M36.482 11.7289C36.482 11.7289 35.2094 10.0655 35.9779 7.99184C36.751 5.91656 38.621 5.27422 38.621 5.27422C38.621 5.27422 40.0635 7.24861 39.3094 9.27192C38.5599 11.2939 36.482 11.7289 36.482 11.7289Z" fill="#0D1627"/>
<path d="M33.0385 12.5101C33.0385 12.5101 30.8577 12.1395 29.5774 10.1481C28.2991 8.15738 29.2165 6.14773 29.2165 6.14773C29.2165 6.14773 31.2478 6.72986 32.5588 8.77326C33.8726 10.816 33.0385 12.5101 33.0385 12.5101Z" fill="#0D1627"/>
<path d="M32.8358 18.6805C32.8358 18.6805 30.6899 18.0404 29.6716 15.9347C28.657 13.826 29.8528 11.9803 29.8528 11.9803C29.8528 11.9803 31.8156 12.8083 32.859 14.9717C33.9023 17.1316 32.8358 18.6805 32.8358 18.6805Z" fill="#0D1627"/>
<path d="M30.3088 23.0556C30.3088 23.0556 28.2142 22.229 27.396 20.0619C26.5804 17.892 27.9618 16.1829 27.9618 16.1829C27.9618 16.1829 29.8584 17.1764 30.697 19.403C31.5358 21.6277 30.3088 23.0556 30.3088 23.0556Z" fill="#0D1627"/>
<path d="M26.5872 27.356C26.5872 27.356 24.7579 26.0033 24.5989 23.7688C24.4392 21.5343 26.3214 20.3377 26.3214 20.3377C26.3214 20.3377 27.9005 21.79 28.0646 24.0836C28.2264 26.3787 26.5872 27.356 26.5872 27.356Z" fill="#0D1627"/>
<path d="M33.6279 7.33122C33.6279 7.33122 31.6912 6.53241 31.086 4.26084C30.4814 1.98895 31.5519 0.403961 31.5519 0.403961C31.5519 0.403961 33.8023 1.39133 34.3892 3.60643C34.9777 5.8209 33.6279 7.33122 33.6279 7.33122Z" fill="#0D1627"/>
<path d="M36.5633 16.4466C36.5633 16.4466 35.8149 14.5478 37.2125 12.856C38.6133 11.1626 40.657 11.1069 40.657 11.1069C40.657 11.1069 41.4766 13.3415 40.1165 14.9912C38.7511 16.6423 36.5633 16.4466 36.5633 16.4466Z" fill="#0D1627"/>
<path d="M35.0457 21.1388C35.0457 21.1388 34.7374 19.1729 36.5258 17.8674C38.3158 16.5616 40.372 16.9523 40.372 16.9523C40.372 16.9523 40.6753 19.2524 38.9305 20.5257C37.1857 21.7984 35.0457 21.1388 35.0457 21.1388Z" fill="#0D1627"/>
<path d="M32.6798 24.9141C32.6798 24.9141 32.9925 23.0153 35.1708 22.3443C37.3483 21.6715 39.2569 22.6348 39.2569 22.6348C39.2569 22.6348 38.8307 24.8381 36.7121 25.4944C34.5852 26.15 32.6798 24.9141 32.6798 24.9141Z" fill="#0D1627"/>
<path d="M31.6421 26.4772C33.9175 26.0723 35.7206 27.2386 35.7206 27.2386C35.7206 27.2386 35.0155 29.3481 32.8014 29.7428C30.5834 30.1389 28.8182 28.7051 28.8182 28.7051C28.8182 28.7051 29.3698 26.8834 31.6421 26.4772Z" fill="#0D1627"/>
<path d="M33.4163 8.63069L34.4232 8.24579C34.4814 8.35662 39.8873 19.5309 25.4059 30.2675L24.6582 29.3693C38.4436 19.1479 33.6286 9.05602 33.4163 8.63069Z" fill="#0D1627"/>
</g>
<defs>
<clipPath id="clip0_0_2584">
<rect width="17" height="29.5492" fill="white" transform="translate(1.35938) rotate(2.63649)"/>
</clipPath>
<clipPath id="clip1_0_2584">
<rect width="17" height="29.5492" fill="white" transform="matrix(-0.998941 0.0459992 0.0459992 0.998941 40.3242 0)"/>
</clipPath>
</defs>
</svg>
