<svg id="icons_Q2" data-name="icons Q2" xmlns="http://www.w3.org/2000/svg" width="16.323" height="16.182" viewBox="0 0 16.323 16.182">
  <path id="Path_2938" data-name="Path 2938" d="M14.6,13.682a5.974,5.974,0,0,0,1.211-4.4,6.135,6.135,0,0,0-5.57-5.328A6.064,6.064,0,1,0,9.033,16.023a6.175,6.175,0,0,0,4.44-1.171l5.045,5a.767.767,0,0,0,1.13,0h0a.767.767,0,0,0,0-1.13Zm-4.077.727A4.44,4.44,0,0,1,5.441,9.242a4.426,4.426,0,1,1,8.718,1.534A4.48,4.48,0,0,1,10.527,14.408Z" transform="translate(-3.574 -3.924)" fill="#ffffff80"/>
</svg>
